<mxfile host="app.diagrams.net" modified="2024-03-27T11:27:19.347Z" agent="Mozilla/5.0 (Windows NT 10.0; Win64; x64) AppleWebKit/537.36 (KHTML, like Gecko) Chrome/123.0.0.0 Safari/537.36" etag="o-UyHcz8kuCjORkY0X5j" version="24.0.7" type="github">
  <diagram id="prtHgNgQTEPvFCAcTncT" name="Page-1">
    <mxGraphModel dx="1562" dy="2013" grid="1" gridSize="10" guides="1" tooltips="1" connect="1" arrows="1" fold="1" page="1" pageScale="1" pageWidth="827" pageHeight="1169" math="0" shadow="0">
      <root>
        <mxCell id="0" />
        <mxCell id="1" parent="0" />
        <mxCell id="Bt3o9h0TUUA31ttmLjAb-123" value="" style="rounded=0;whiteSpace=wrap;html=1;hachureGap=4;fontFamily=Architects Daughter;fontSource=https%3A%2F%2Ffonts.googleapis.com%2Fcss%3Ffamily%3DArchitects%2BDaughter;dashed=1;dashPattern=8 8;strokeWidth=1;fillColor=none;" vertex="1" parent="1">
          <mxGeometry x="940" y="-540" width="180" height="610" as="geometry" />
        </mxCell>
        <mxCell id="Bt3o9h0TUUA31ttmLjAb-100" value="" style="rounded=0;whiteSpace=wrap;html=1;hachureGap=4;fontFamily=Architects Daughter;fontSource=https%3A%2F%2Ffonts.googleapis.com%2Fcss%3Ffamily%3DArchitects%2BDaughter;dashed=1;dashPattern=8 8;strokeWidth=1;fillColor=none;" vertex="1" parent="1">
          <mxGeometry x="80" y="-520" width="810" height="590" as="geometry" />
        </mxCell>
        <mxCell id="Bt3o9h0TUUA31ttmLjAb-15" value="文件存储" style="shape=image;verticalLabelPosition=bottom;labelBackgroundColor=default;verticalAlign=top;aspect=fixed;imageAspect=0;image=data:image/svg+xml,PHN2ZyB4bWxuczp4bGluaz0iaHR0cDovL3d3dy53My5vcmcvMTk5OS94bGluayIgeG1sbnM9Imh0dHA6Ly93d3cudzMub3JnLzIwMDAvc3ZnIiBoZWlnaHQ9IjIwMCIgd2lkdGg9IjIwMCIgdmVyc2lvbj0iMS4xIiB2aWV3Qm94PSIwIDAgMTAyNCAxMDI0IiBjbGFzcz0iaWNvbiI+PHBhdGggZmlsbD0iIzNFNkVGNyIgZD0iTTg4My4yIDg5LjZjMC0zOC40LTMyLTY0LTcwLjQtNjRINzAuNGMtMzguNCAwLTY0IDMyLTY0IDY0djIwNC44aDg4My4yVjg5LjZ6TTM0NS42IDE5OC40SDEyOFYxMjEuNmgyMjR2NzYuOHogbTIzMC40IDBjLTEyLjggMC0yNS42LTYuNC0zMi0xOS4yLTYuNC0xMi44LTYuNC0yNS42IDAtMzguNCAwLTEyLjggMTkuMi0xOS4yIDMyLTE5LjIgMTkuMiAwIDM4LjQgMTkuMiAzOC40IDM4LjRzLTEyLjggMzguNC0zOC40IDM4LjR6IG0xMjggMGMtMTkuMiAwLTM4LjQtMTkuMi0zOC40LTM4LjRzMTkuMi0zOC40IDM4LjQtMzguNCAzOC40IDE5LjIgMzguNCAzOC40LTE5LjIgMzguNC0zOC40IDM4LjR6IG0tMzU4LjQgNjQwdjM4LjRIMTI4di03Ni44aDE5OC40Yy0xMi44LTMyLTE5LjItNjQtMjUuNi05NkgwdjIyNGMwIDI1LjYgMTkuMiA0NC44IDQ0LjggNDQuOGg0MjIuNGMtNTEuMi0zMi04OS42LTc2LjgtMTIxLjYtMTM0LjR6TTMyMCA1NDRIMTI4VjQ2Ny4yaDIyNHYxOS4yYzE5LjItNDQuOCA1MS4yLTgzLjIgOTYtMTE1LjJIMFY2NDBoMzAwLjhMMzIwIDU0NHogbTAgME04MDYuNCA2MDEuNkg1NjkuNmMtNi40IDAtMTIuOCA2LjQtMTIuOCAxMi44czYuNCAxMi44IDEyLjggMTIuOGgyMzYuOGM2LjQgMCAxMi44LTYuNCAxMi44LTEyLjhzLTYuNC0xMi44LTEyLjgtMTIuOHogbTAgMCIvPjxwYXRoIGZpbGw9IiMzRTZFRjciIGQ9Ik02OTEuMiAzMjYuNGMtMTg1LjYgMC0zMzIuOCAxNDcuMi0zMzIuOCAzMzIuOCAwIDE4NS42IDE0Ny4yIDMzMi44IDMzMi44IDMzMi44IDE4NS42IDAgMzMyLjgtMTQ3LjIgMzMyLjgtMzMyLjggMC0xNzkuMi0xNDcuMi0zMzIuOC0zMzIuOC0zMzIuOHogbTE0Ny4yIDQ5Mi44SDUzNy42cy0yNS42IDYuNC0yNS42LTI1LjZ2LTI1NnMwLTI1LjYgMzItMjUuNmgxMDguOHMxMi44IDAgMjUuNiAxMi44YzEyLjggMTkuMiAxOS4yIDI1LjYgMTkuMiAyNS42czYuNCA2LjQgMTIuOCA2LjRoMTM0LjRzMjUuNiAwIDI1LjYgMjUuNnYyMjRjLTYuNC0xMi44LTYuNCAxMi44LTMyIDEyLjh6IG0wIDAiLz48L3N2Zz4=;fontStyle=1;fontSize=12;fontColor=#000000;fontFamily=Georgia;shadow=0;" vertex="1" parent="1">
          <mxGeometry x="1000" y="-172" width="70" height="70" as="geometry" />
        </mxCell>
        <mxCell id="Bt3o9h0TUUA31ttmLjAb-111" style="edgeStyle=orthogonalEdgeStyle;rounded=0;orthogonalLoop=1;jettySize=auto;html=1;entryX=0.5;entryY=0;entryDx=0;entryDy=0;" edge="1" parent="1" source="Bt3o9h0TUUA31ttmLjAb-24" target="Bt3o9h0TUUA31ttmLjAb-58">
          <mxGeometry relative="1" as="geometry" />
        </mxCell>
        <mxCell id="Bt3o9h0TUUA31ttmLjAb-24" value="负载均衡" style="shape=image;verticalLabelPosition=bottom;labelBackgroundColor=default;verticalAlign=top;aspect=fixed;imageAspect=0;image=data:image/svg+xml,PHN2ZyB4bWxuczp4bGluaz0iaHR0cDovL3d3dy53My5vcmcvMTk5OS94bGluayIgeG1sbnM9Imh0dHA6Ly93d3cudzMub3JnLzIwMDAvc3ZnIiBoZWlnaHQ9IjIwMCIgd2lkdGg9IjIwMCIgdmVyc2lvbj0iMS4xIiB2aWV3Qm94PSIwIDAgMTAyNCAxMDI0IiBjbGFzcz0iaWNvbiI+PHBhdGggZmlsbD0iIzEyOTZkYiIgZD0iTTc2Mi44OCA2MTkuNTJjLTEwLjI0IDAtMjMuMDQgMC0zMy4yOCAyLjU2TDY1NS4zNiA0NjAuOGM0My41Mi0zOC40IDY5LjEyLTk0LjcyIDY5LjEyLTE1OC43MiAwLTExNy43Ni05NC43Mi0yMTUuMDQtMjE1LjA0LTIxNS4wNHMtMjE1LjA0IDk0LjcyLTIxNS4wNCAyMTUuMDRjMCA2MS40NCAyNS42IDExNy43NiA2Ni41NiAxNTYuMTZsLTc0LjI0IDE2My44NGMtMTAuMjQtMi41Ni0yMC40OC0yLjU2LTMwLjcyLTIuNTYtODcuMDQgMC0xNTYuMTYgNjkuMTItMTU2LjE2IDE1Ni4xNiAwIDg3LjA0IDY5LjEyIDE1Ni4xNiAxNTYuMTYgMTU2LjE2IDc5LjM2IDAgMTQzLjM2LTU4Ljg4IDE1My42LTEzMy4xMmgxOTJjMTAuMjQgNzQuMjQgNzYuOCAxMzMuMTIgMTUzLjYgMTMzLjEyIDg3LjA0IDAgMTU2LjE2LTY5LjEyIDE1Ni4xNi0xNTYuMTYgNy42OC04NC40OC02MS40NC0xNTYuMTYtMTQ4LjQ4LTE1Ni4xNnogbS0zNDUuNi0xMjIuODhjMjguMTYgMTIuOCA2MS40NCAyMy4wNCA5NC43MiAyMy4wNCAzMy4yOCAwIDY0LTcuNjggOTIuMTYtMjAuNDhsNjkuMTIgMTUxLjA0Yy0zMC43MiAyMC40OC01MS4yIDUxLjItNjEuNDQgODkuNmgtMTk5LjY4Yy0xMC4yNC0zNS44NC0zMy4yOC02OS4xMi02MS40NC04OS42bDY2LjU2LTE1My42eiIvPjwvc3ZnPg==;shadow=0;fontFamily=Lucida Console;fontStyle=1;fontSize=14;" vertex="1" parent="1">
          <mxGeometry x="430" y="-900" width="110" height="110" as="geometry" />
        </mxCell>
        <mxCell id="Bt3o9h0TUUA31ttmLjAb-33" value="" style="swimlane;startSize=0;hachureGap=4;fontFamily=Georgia;dashed=1;strokeColor=#FF9933;strokeWidth=2;rounded=1;opacity=80;shadow=0;" vertex="1" parent="1">
          <mxGeometry x="976" y="-520" width="111" height="305" as="geometry" />
        </mxCell>
        <mxCell id="Bt3o9h0TUUA31ttmLjAb-73" value="&lt;font size=&quot;1&quot; face=&quot;Lucida Console&quot;&gt;&lt;b style=&quot;font-size: 14px;&quot;&gt;日志监控平台&lt;/b&gt;&lt;/font&gt;" style="text;html=1;align=center;verticalAlign=middle;resizable=0;points=[];autosize=1;strokeColor=none;fillColor=none;fontFamily=Architects Daughter;fontSource=https%3A%2F%2Ffonts.googleapis.com%2Fcss%3Ffamily%3DArchitects%2BDaughter;" vertex="1" parent="Bt3o9h0TUUA31ttmLjAb-33">
          <mxGeometry x="0.9999999999999982" y="270" width="110" height="30" as="geometry" />
        </mxCell>
        <mxCell id="Bt3o9h0TUUA31ttmLjAb-81" value="Grafana" style="shape=image;verticalLabelPosition=bottom;labelBackgroundColor=default;verticalAlign=top;aspect=fixed;imageAspect=0;image=data:image/svg+xml,PHN2ZyB4bWxuczp4bGluaz0iaHR0cDovL3d3dy53My5vcmcvMTk5OS94bGluayIgeG1sbnM9Imh0dHA6Ly93d3cudzMub3JnLzIwMDAvc3ZnIiBoZWlnaHQ9IjIwMCIgd2lkdGg9IjIwMCIgdmVyc2lvbj0iMS4xIiB2aWV3Qm94PSIwIDAgMTAyNCAxMDI0IiBjbGFzcz0iaWNvbiI+PHBhdGggZmlsbD0iI0Y0NjgwMCIgZD0iTTk4MS4yOCA0NTMuMzc2Yy0xLjgyNC0xNy4yOC00LjUxMi0zNy4yNDgtOS45ODQtNTkuMDRzLTE0LjU2LTQ1LjQ0LTI2LjM2OC03MC44OGMtMTIuNzA0LTI0LjU0NC0yOC4xNi01MC45MTItNDkuMDU2LTc1LjQyNC04LjE5Mi05Ljk4NC0xNy4yOC0xOS4wNzItMjYuMzY4LTI5LjA1NiAxNC41Ni01Ny4yNDgtMTcuMjgtMTA3LjIzMi0xNy4yOC0xMDcuMjMyLTU1LjQyNC0zLjYxNi04OS45NTIgMTcuMjgtMTAyLjY1NiAyNi4zNjgtMS44MjQtMC44OTYtNC41MTItMS44MjQtNi4zNjgtMi43MmExMTI2LjA4IDExMjYuMDggMCAwIDAtMjkuMDU2LTEwLjkxMmMtOS45ODQtMi43Mi0yMC02LjM2OC0yOS45ODQtOC4xOTItOS45ODQtMi43Mi0yMC44OTYtNC41MTItMzEuNzc2LTYuMzY4LTEuODI0IDAtMy42MTYtMC44OTYtNS40NzItMC44OTZDNjIzLjI2NCAzMi43MDQgNTU0LjI0IDAgNTU0LjI0IDBjLTc5LjA3MiA1MC45MTItOTQuNDk2IDExOS4wNC05NC40OTYgMTE5LjA0czAgMS44MjQtMC44OTYgMy42MTZjLTQuNTEyIDAuODk2LTguMTkyIDIuNzItMTIuNzA0IDMuNjE2LTUuNDcyIDEuODI0LTExLjgwOCAzLjYxNi0xNy4yOCA2LjM2OHMtMTEuODA4IDQuNTEyLTE3LjI4IDcuMjY0Yy0xMS44MDggNS40NzItMjIuNjg4IDEwLjkxMi0zNC41MjggMTcuMjgtMTIuNTEyIDcuMDQtMjIuOTEyIDEzLjY2NC0zMi44OTYgMjAuNzY4bDEuMTItMC43NjhjLTEuODI0LTAuODk2LTIuNzItMS44MjQtMi43Mi0xLjgyNC0xMDYuMzM2LTQwLjg2NC0yMDAuOCA4LjE5Mi0yMDAuOCA4LjE5Mi04LjE5MiAxMTMuNTY4IDQyLjcyIDE4NC40NDggNTIuNzA0IDE5Ny4xNTItMi43MiA3LjI2NC00LjUxMiAxMy42LTcuMjY0IDIwLjg5NmE0MjkuNzYgNDI5Ljc2IDAgMCAwLTE3LjAyNCA3Ni43NjhsLTAuMjU2IDIuMzA0Yy0wLjg5NiAzLjYxNi0wLjg5NiA4LjE5Mi0xLjgyNCAxMS44MDgtOTguMTQ0IDQ4LjE2LTEyNy4yIDE0OC4wOTYtMTI3LjIgMTQ4LjA5NiA4MS43OTIgOTQuNDk2IDE3OC4wOCA5OS45NjggMTc4LjA4IDk5Ljk2OCAxMy4wNTYgMjMuNDU2IDI2Ljg4IDQzLjY4IDQyLjM2OCA2Mi40OTZsLTAuNTc2LTAuNzA0YzYuMzY4IDguMTkyIDEzLjYgMTUuNDU2IDIwLjg5NiAyMy42NDgtMjkuOTg0IDg1LjQwOCA0LjUxMiAxNTcuMTg0IDQuNTEyIDE1Ny4xODQgOTEuNzc2IDMuNjE2IDE1MS43MTItMzkuOTY4IDE2NC40NDgtNDkuOTUybDI3LjI2NCA4LjE5MmMyOC4xNiA3LjI2NCA1Ny4yNDggMTEuODA4IDg1LjQwOCAxMi43MDRoMzcuMjQ4YzQyLjcyIDYxLjc5MiAxMTkuMDQgNjkuOTg0IDExOS4wNCA2OS45ODQgNTMuNi01Ny4yNDggNTcuMjQ4LTExMi42NzIgNTcuMjQ4LTEyNS40MDh2LTUuNDcyYzEwLjkxMi04LjE5MiAyMS43OTItMTYuMzUyIDMyLjczNi0yNS40NCAyMS43OTItMTkuMDcyIDM5Ljk2OC00MS44MjQgNTYuMzItNjUuNDA4IDEuODI0LTEuODI0IDIuNzItNC41MTIgNC41MTItNi4zNjggNjAuODk2IDMuNjE2IDEwMy41ODQtMzguMTQ0IDEwMy41ODQtMzguMTQ0LTkuOTg0LTYzLjYxNi00Ni4zMzYtOTQuNDk2LTUzLjYtOTkuOTY4bC0yLjY4OC0yLjY4OGMwLTMuNjE2IDAuODk2LTcuMjY0IDAuODk2LTExLjgwOCAwLjg5Ni03LjI2NCAwLjg5Ni0xMy42IDAuODk2LTIwLjg5NnYtMjYuMzY4YzAtMS44MjQgMC0zLjYxNi0wLjg5Ni01LjQ3MmwtMS44MjQtMTAuOTEyYy0wLjg5Ni03LjI2NC0yLjcyLTEzLjYtMy42MTYtMjAuODk2YTI2OS42NjQgMjY5LjY2NCAwIDAgMC0zMS41NTItNzcuNTM2bDAuNjcyIDEuMjE2YTI4NS4xMiAyODUuMTIgMCAwIDAtNTEuNTItNjEuNTM2bC0wLjI1Ni0wLjIyNGEyNTEuMDA4IDI1MS4wMDggMCAwIDAtNjMuODA4LTQxLjE4NGwtMS42LTAuNjRhMjIyLjc4NCAyMjIuNzg0IDAgMCAwLTcwLjcyLTE5LjkwNGwtMS4wNTYtMC4wOTZjLTExLjgwOC0xLjgyNC0yNC41NDQtMS44MjQtMzYuMzUyLTEuODI0aC0xOC4xNzZjLTYuMzY4IDAuODk2LTEyLjcwNCAxLjgyNC0xOC4xNzYgMi43Mi0yNC41NDQgNC41MTItNDcuMjMyIDEzLjYtNjcuMjMyIDI1LjQ0cy0zNy4yNDggMjcuMjY0LTUxLjgwOCA0NC41MTJhMTgyLjQ2NCAxODIuNDY0IDAgMCAwLTMyLjMyIDU0LjE3NmwtMC40MTYgMS4yNDhhMTk2LjM4NCAxOTYuMzg0IDAgMCAwLTEyLjcwNCA1OS4wNHYyMS43OTJjMCAyLjcyIDAgNC41MTIgMC44OTYgNy4yNjQgMy4wNCAyOS4zNzYgMTMuODI0IDU1Ljc0NCAzMC4yNzIgNzcuNjMybC0wLjI4OC0wLjM4NGMxMC45MTIgMTQuNTYgMjIuNjg4IDI1LjQ0IDM2LjM1MiAzNC41MjggMTMuNiA5LjA4OCAyNy4yNjQgMTUuNDU2IDQxLjgyNCAyMHMyOC4xNiA2LjM2OCA0MC44NjQgNS40NzJoMTkuMDRjMS44MjQgMCAzLjYxNi0wLjg5NiA0LjUxMi0wLjg5NiAxLjgyNCAwIDIuNzItMC44OTYgNC41MTItMC44OTYgMi43Mi0wLjg5NiA2LjM2OC0xLjgyNCA5LjA4OC0yLjcyIDUuNDcyLTEuODI0IDEwLjkxMi00LjUxMiAxNi4zNTItNi4zNjggNS40NzItMi43MiA5Ljk4NC01LjQ3MiAxMy42LTguMTkyIDAuODk2LTAuODk2IDIuNzItMS44MjQgMy42MTYtMi43MmExMC4xNzYgMTAuMTc2IDAgMCAwIDEuODI0LTE0LjU2djAuMDMyYTEyLjczNiAxMi43MzYgMCAwIDAtMTMuNjk2LTIuNzJsMC4wOTYtMC4wMzJjLTAuODk2IDAuODk2LTEuODI0IDAuODk2LTMuNjE2IDEuODI0YTU3Ljc5MiA1Ny43OTIgMCAwIDEtMTEuMzkyIDQuNDE2bC0wLjQxNiAwLjA5NmMtNC41MTIgMC44OTYtOS4wODggMi43Mi0xMy42IDMuNjE2LTIuNzIgMC00LjUxMiAwLjg5Ni03LjI2NCAwLjg5NmgtMTUuMzkycy0wLjg5NiAwIDAgMGgtMy42OGMtMC45MjggMC0yLjcyIDAtMy42MTYtMC44OTYtOS45ODQtMS44MjQtMjAuODk2LTQuNTEyLTMwLjg4LTkuMDg4cy0yMC0xMC45MTItMjguMTYtMTkuMDcyYy05LjA4OC04LjE5Mi0xNi4zNTItMTcuMjgtMjIuNjg4LTI4LjE2cy05Ljk4NC0yMi42ODgtMTEuODA4LTM0LjUyOGMtMC44OTYtNi4zNjgtMS44MjQtMTIuNzA0LTAuODk2LTE5LjA3MnYtNS40NzJjMCAwLjg5NiAwIDAgMCAwdi00LjU3NmMwLTMuNjE2IDAuODk2LTYuMzY4IDEuODI0LTkuOTg0YTEzMy4yMTYgMTMzLjIxNiAwIDAgMSAzOS4wNC03My41NjhsMC4wMzItMC4wMzJjNS40NzItNS40NzIgMTAuOTEyLTkuOTg0IDE3LjI4LTEzLjYgNi4zNjgtNC41MTIgMTIuNzA0LTguMTkyIDE5LjA3Mi0xMC45MTJzMTMuNi01LjQ3MiAyMC44OTYtNy4yNjRjNy4yNjQtMS44MjQgMTQuNTYtMy42MTYgMjEuNzkyLTMuNjE2IDMuNjE2IDAgNy4yNjQtMC44OTYgMTAuOTEyLTAuODk2aDcuMjY0YzAuODk2IDAgMCAwIDAgMGgzLjYxNmExNzIuNzA0IDE3Mi43MDQgMCAwIDEgNjkuOTUyIDIxLjM0NGwtMC44NjQtMC40NDhjMjkuMDU2IDE2LjM1MiA1My42IDQwLjg2NCA2OC4xMjggNzAuODggNy4yNjQgMTQuNTYgMTIuNzA0IDMwLjg4IDE1LjQ1NiA0OC4xNiAwLjg5NiA0LjUxMiAwLjg5NiA4LjE5MiAxLjgyNCAxMi43MDR2MjMuNjQ4YzAgNC41MTItMC44OTYgOS4wODgtMC44OTYgMTMuNi0wLjg5NiA0LjUxMi0wLjg5NiA5LjA4OC0xLjgyNCAxMy42bC0yLjcyIDEzLjZjLTAuODk2IDQuNTEyLTUuNDcyIDE3LjI4LTguMTkyIDI2LjM2OHMtMTUuNDU2IDMzLjYzMi0yNi4zNjggNDguMTZhMjIxLjU2OCAyMjEuNTY4IDAgMCAxLTg0LjA2NCA2OS40MDhsLTEuMzQ0IDAuNTc2Yy0xNy4yOCA3LjI2NC0zNC41MjggMTMuNi01Mi43MDQgMTYuMzUyLTguMTkyIDEuNzI4LTE3LjYgMi43Mi0yNy4yNjQgMi43MmgtMTMuNmMwLjg5NiAwIDAgMCAwIDBoLTAuODk2Yy00LjUxMiAwLTkuOTg0IDAtMTQuNTYtMC44OTYtMjAtMS44MjQtMzkuMDcyLTUuNDcyLTU4LjE0NC0xMC45MTJzLTM3LjI0OC0xMi43MDQtNTQuNTI4LTIxLjc5MmEyOTguODggMjk4Ljg4IDAgMCAxLTg5LjUwNC03My45NTJsLTAuNDE2LTAuNTQ0Yy0xMS44MDgtMTUuNDU2LTIyLjY4OC0zMS43NzYtMzEuNzc2LTQ5LjA1NnMtMTUuNDU2LTM1LjQ1Ni0yMC44OTYtNTMuNmEyMjguNDggMjI4LjQ4IDAgMCAxLTkuMDg4LTU1Ljg3MnYtMjguNjA4YzAtOS4wODggMC44OTYtMTkuMDcyIDIuNzItMjkuMDU2IDAuODk2LTkuOTg0IDIuNzItMTkuMDcyIDQuNTEyLTI5LjA1NnM0LjUxMi0xOS4wNzIgNy4yNjQtMjkuMDU2IDExLjgwOC0zNy4yNDggMjAtNTQuNTI4YzE2LjM1Mi0zNC41MjggMzcuMjQ4LTY1LjQwOCA2MS43OTItODkuOTUyIDYuMzY4LTYuMzY4IDEyLjcwNC0xMS44MDggMjAtMTcuMjggMi43Mi0yLjcyIDkuMDg4LTguMTkyIDE2LjM1Mi0xMi43MDRzMTQuNTYtOS4wODggMjIuNjg4LTEyLjcwNGMzLjYxNi0xLjgyNCA3LjI2NC0zLjYxNiAxMS44MDgtNS40NzIgMS44MjQtMC44OTYgMy42MTYtMS44MjQgNi4zNjgtMi43MiAxLjgyNC0wLjg5NiAzLjYxNi0xLjgyNCA2LjM2OC0yLjcyIDguMTkyLTMuNjE2IDE2LjM1Mi02LjM2OCAyNC41NDQtOS4wODggMS44MjQtMC44OTYgNC41MTItMC44OTYgNi4zNjgtMS44MjRzNC41MTItMC44OTYgNi4zNjgtMS44MjQgOC4xOTItMS44MjQgMTIuNzA0LTMuNjE2YzEuODI0LTAuODk2IDQuNTEyLTAuODk2IDYuMzY4LTEuODI0IDEuODI0IDAgNC41MTItMC44OTYgNi4zNjgtMC44OTZzNC41MTItMC44OTYgNi4zNjgtMC44OTZsNy4yNjQtMS44MjRjMS44MjQgMCA0LjUxMi0wLjg5NiA2LjM2OC0wLjg5NiAyLjcyIDAgNC41MTItMC44OTYgNy4yNjQtMC44OTYgMS44MjQgMCA1LjQ3Mi0wLjg5NiA3LjI2NC0wLjg5NnMyLjcyIDAgNC41MTItMC44OTZoNi4zNjhjMi43MiAwIDQuNTEyIDAgNy4yNjQtMC44OTZoMy42MTZzMC44OTYgMCAwIDBoMzMuNjMyYzE2LjM1MiAwLjg5NiAzMi43MzYgMi43MiA0OC4xNiA1LjQ3MmEzMDcuODQgMzA3Ljg0IDAgMCAxIDg4LjkyOCAyOS44NTZsLTEuNzI4LTAuOGMyNy4wNCAxMy4xODQgNTAuMzM2IDI4LjY0IDcxLjI5NiA0Ni42ODhsLTAuNDE2LTAuMzUyYzAuODk2IDAuODk2IDIuNzIgMS44MjQgMy42MTYgMy42MTYgMC44OTYgMC44OTYgMi43MiAxLjgyNCAzLjYxNiAzLjYxNiAyLjcyIDEuODI0IDQuNTEyIDQuNTEyIDcuMjY0IDYuMzY4czQuNTEyIDQuNTEyIDcuMjY0IDYuMzY4YzEuODI0IDIuNzIgNC41MTIgNC41MTIgNi4zNjggNy4yNjRhMzM2LjUxMiAzMzYuNTEyIDAgMCAxIDU5LjEwNCA4Mi41NmwwLjg5NiAxLjkyYzAuODk2IDAuODk2IDAuODk2IDEuODI0IDEuODI0IDMuNjE2IDAuODk2IDAuODk2IDAuODk2IDEuODI0IDEuODI0IDMuNjE2czEuODI0IDQuNTEyIDMuNjE2IDYuMzY4YzAuODk2IDEuODI0IDEuODI0IDQuNTEyIDIuNzIgNi4zNjhzMS44MjQgNC41MTIgMi43MiA2LjM2OGMzLjYxNiA4LjE5MiA2LjM2OCAxNi4zNTIgOS4wODggMjQuNTQ0IDQuNTEyIDEyLjcwNCA3LjI2NCAyMy42NDggOS45ODQgMzIuNzM2YTguNzM2IDguNzM2IDAgMCAwIDguMTkyIDYuMzY4YzQuNTEyIDAgNy4yNjQtMy42MTYgNy4yNjQtOC4xOTItMC44OTYtMTAuOTEyLTAuODk2LTIyLjY4OC0xLjgyNC0zNi4zNTJ6Ii8+PC9zdmc+;fontSize=14;fontColor=#FF8000;fontStyle=1" vertex="1" parent="Bt3o9h0TUUA31ttmLjAb-33">
          <mxGeometry x="21" y="20" width="70" height="70" as="geometry" />
        </mxCell>
        <mxCell id="Bt3o9h0TUUA31ttmLjAb-84" value="Prometheus" style="shape=image;verticalLabelPosition=bottom;labelBackgroundColor=default;verticalAlign=top;aspect=fixed;imageAspect=0;image=data:image/svg+xml,PHN2ZyB4bWxuczp4bGluaz0iaHR0cDovL3d3dy53My5vcmcvMTk5OS94bGluayIgeG1sbnM9Imh0dHA6Ly93d3cudzMub3JnLzIwMDAvc3ZnIiBoZWlnaHQ9IjIwMCIgd2lkdGg9IjIwMi4xNDg0Mzc1IiB2ZXJzaW9uPSIxLjEiIHZpZXdCb3g9IjAgMCAxMDM1IDEwMjQiIGNsYXNzPSJpY29uIj48cGF0aCBmaWxsPSIjRTY1MjJDIiBkPSJNNTA5LjAwODg0MiA1Ljk5MTI5OEMyMjcuOTAyODc3IDUuOTkxMjk4IDAgMjMzLjg2NzIyOCAwIDUxNC45ODIxNzVjMCAyODEuMTA1OTY1IDIyNy45MDI4NzcgNTA4Ljk5OTg2IDUwOS4wMDg4NDIgNTA4Ljk5OTg2czUwOC45OTk4Ni0yMjcuODkzODk1IDUwOC45OTk4Ni01MDguOTk5ODZjMC0yODEuMTE0OTQ3LTIyNy45MDI4NzctNTA4Ljk5MDg3Ny01MDguOTk5ODYtNTA4Ljk5MDg3N3ogbTAgOTUyLjYzNDM4NmMtNzkuOTc5Nzg5IDAtMTQ0LjgyNDE0LTUzLjQyNzY0OS0xNDQuODI0MTQtMTE5LjMxMzk2NUg2NTMuODMyOTgyYzAgNjUuODc3MzMzLTY0Ljg0NDM1MSAxMTkuMzEzOTY1LTE0NC44MjQxNCAxMTkuMzEzOTY1eiBtMjM5LjIwMjgwNy0xNTguODI3Nzg5SDI2OS43NzkwODh2LTg2Ljc1MjU2Mmg0NzguNDQxNTQ0djg2Ljc1MjU2MnogbS0xLjcxNTY0OS0xMzEuNDA0MzUxaC00NzUuMzUxNTc5Yy0xLjU4MDkxMi0xLjgyMzQzOS0zLjE5Nzc1NC0zLjYxOTkzLTQuNzI0NzcyLTUuNDcwMzE2LTQ4Ljk3MjM1MS01OS40NjM4Ni02MC41MDU4MjUtOTAuNTA3MjI4LTcxLjcwNjk0Ny0xMjIuMTQzNDM5LTAuMTg4NjMyLTEuMDQxOTY1IDU5LjM4MzAxOCAxMi4xNzEyMjggMTAxLjYyNzUwOSAyMS42NzQ2NjcgMCAwIDIxLjczNzU0NCA1LjAzMDE3NSA1My41MTc0NzMgMTAuODIzODYtMzAuNTEzNDA0LTM1Ljc2ODE0LTQ4LjYzMTAxOC04MS4yMzczMzMtNDguNjMxMDE3LTEyNy43MTI1NjIgMC0xMDIuMDMxNzE5IDc4LjI1NTE1OC0xOTEuMTkxNTc5IDUwLjAyMzI5OC0yNjMuMjU3ODI0IDI3LjQ3NzMzMyAyLjIzNjYzMiA1Ni44Njc5MyA1Ny45OTA3MzcgNTguODUzMDUzIDE0NS4xNjU0NzQgMjkuMjEwOTQ3LTQwLjM2NzE1OCA0MS40MzYwNy0xMTQuMDg2MTc1IDQxLjQzNjA3LTE1OS4yODU4OTUgMC00Ni43OTg1OTYgMzAuODM2NzcyLTEwMS4xNjA0MjEgNjEuNjgyNTI2LTEwMy4wMTk3OS0yNy40OTUyOTggNDUuMzE2NDkxIDcuMTIzMDg4IDg0LjE2NTYxNCAzNy44OTY5ODIgMTgwLjUzODM4NiAxMS41NDI0NTYgMzYuMTk5Mjk4IDEwLjA2OTMzMyA5Ny4xMTgzMTYgMTguOTc5OTMgMTM1Ljc1MTg2QzU3My4wNTM3NTQgMzAxLjIxNzY4NCA1ODYuODUwODA3IDE4NC4xNDAzNTEgNjM3Ljc1NDM4NiAxNDMuNzE5Mjk4Yy0yMi40NTYxNCA1MC45MDM1NzkgMy4zMjM1MDkgMTE0LjU5ODE3NSAyMC45NTYwNyAxNDUuMjE5MzY5IDI4LjQ0NzQzOSA0OS40MDM1MDkgNDUuNjkzNzU0IDg2LjgzMzQwNCA0NS42OTM3NTUgMTU3LjYyNDE0IDAgNDcuNDYzMjk4LTE3LjUyNDc3MiA5Mi4xNTEwMTgtNDcuMDg2MDM2IDEyNy4wODM3ODkgMzMuNjEyMzUxLTYuMzA1Njg0IDU2LjgyMzAxOC0xMS45OTE1NzkgNTYuODIzMDE4LTExLjk5MTU3OGwxMDkuMTU0ODA3LTIxLjI5NzQwNGMwLjAwODk4Mi0wLjAwODk4Mi0xNS44NTQwMzUgNjUuMjIxNjE0LTc2LjggMTI4LjAzNTkzeiIvPjwvc3ZnPg==;fontColor=#FF8000;fontSize=14;fontStyle=1" vertex="1" parent="Bt3o9h0TUUA31ttmLjAb-33">
          <mxGeometry x="20.999999999999996" y="150" width="70.7" height="70" as="geometry" />
        </mxCell>
        <mxCell id="Bt3o9h0TUUA31ttmLjAb-102" value="" style="edgeStyle=orthogonalEdgeStyle;rounded=0;hachureGap=4;orthogonalLoop=1;jettySize=auto;html=1;fontFamily=Architects Daughter;fontSource=https%3A%2F%2Ffonts.googleapis.com%2Fcss%3Ffamily%3DArchitects%2BDaughter;" edge="1" parent="1" source="Bt3o9h0TUUA31ttmLjAb-46" target="Bt3o9h0TUUA31ttmLjAb-24">
          <mxGeometry relative="1" as="geometry" />
        </mxCell>
        <mxCell id="Bt3o9h0TUUA31ttmLjAb-46" value="" style="swimlane;startSize=0;hachureGap=4;fontFamily=Georgia;dashed=1;strokeColor=#FF9933;strokeWidth=2;rounded=1;opacity=80;shadow=0;" vertex="1" parent="1">
          <mxGeometry x="380" y="-1080" width="210" height="90" as="geometry" />
        </mxCell>
        <mxCell id="Bt3o9h0TUUA31ttmLjAb-27" value="" style="shape=image;verticalLabelPosition=bottom;labelBackgroundColor=default;verticalAlign=top;aspect=fixed;imageAspect=0;image=data:image/svg+xml,PHN2ZyB4bWxuczp4bGluaz0iaHR0cDovL3d3dy53My5vcmcvMTk5OS94bGluayIgeG1sbnM9Imh0dHA6Ly93d3cudzMub3JnLzIwMDAvc3ZnIiBoZWlnaHQ9IjIwMCIgd2lkdGg9IjIwMCIgdmVyc2lvbj0iMS4xIiB2aWV3Qm94PSIwIDAgMTAyNCAxMDI0IiBjbGFzcz0iaWNvbiI+PHBhdGggZmlsbD0iI2VhOTg2YyIgZD0iTTgzMiAwSDE5MmMtMzIgMC02NCAyNS42LTY0IDY0djg5NmMwIDM4LjQgMjUuNiA2NCA2NCA2NGg2NDBjMzIgMCA2NC0yNS42IDY0LTY0VjY0YzAtMzguNC0yNS42LTY0LTY0LTY0ek01MTIgOTYwYy0zOC40IDAtNjQtMjUuNi02NC02NHMyNS42LTY0IDY0LTY0IDY0IDI1LjYgNjQgNjQtMjUuNiA2NC02NCA2NHogbTI4OC0xOTJIMjI0VjEyOGg1NzZ2NjQweiIvPjwvc3ZnPg==;" vertex="1" parent="Bt3o9h0TUUA31ttmLjAb-46">
          <mxGeometry x="130" y="20" width="50" height="50" as="geometry" />
        </mxCell>
        <mxCell id="Bt3o9h0TUUA31ttmLjAb-26" value="" style="shape=image;verticalLabelPosition=bottom;labelBackgroundColor=default;verticalAlign=top;aspect=fixed;imageAspect=0;image=data:image/svg+xml,PHN2ZyB4bWxuczp4bGluaz0iaHR0cDovL3d3dy53My5vcmcvMTk5OS94bGluayIgeG1sbnM9Imh0dHA6Ly93d3cudzMub3JnLzIwMDAvc3ZnIiBoZWlnaHQ9IjIwMCIgd2lkdGg9IjIwOC43ODkwNjI1IiB2ZXJzaW9uPSIxLjEiIHZpZXdCb3g9IjAgMCAxMDY5IDEwMjQiIGNsYXNzPSJpY29uIj48cGF0aCBmaWxsPSIjZWE5ODZjIiBkPSJNMCA5MC4yNDU1NjV2NjY1Ljc3ODA4N2MwIDQ1Ljc2ODM0OCA0NC42MTA3ODMgODkuNjIyMjYxIDg5LjA0MzQ3OCA4OS42MjIyNjFoMjIyLjc4Njc4M2MyMy4wNjIyNjEgMCA0NC43ODg4NyAxOS41ODk1NjUgNDQuNjk5ODI2IDQ0LjY1NTMwNEE0NS4zMjMxMyA0NS4zMjMxMyAwIDAgMSAzMTEuNDI5NTY1IDkzNC45NTY1MjJIMjY4LjAyMDg3Yy01OS41NzAwODcgMC01OS41NzAwODcgODkuMDQzNDc4LTAuNjIzMzA1IDg5LjA0MzQ3OGg1MzQuMzA1MzkyYzU5LjEyNDg3IDAgNTkuMTI0ODctODkuMDQzNDc4LTAuMjY3MTMxLTg5LjA0MzQ3OGgtNDQuNjk5ODI2Yy0yMi44ODQxNzQgMC00NC4zNDM2NTItMjAuMTIzODI2LTQ0LjM0MzY1Mi00NC4yMTAwODcgMC0yNC4wNDE3MzkgMjIuMjE2MzQ4LTQ1LjEwMDUyMiA0NC44Nzc5MTMtNDUuMTAwNTIyaDIyMi4zODYwODdjNDQuNzQ0MzQ4IDAgODguODY1MzkxLTQzLjM2NDE3NCA4OC44NjUzOTEtODguNTA5MjE3Vjg5Ljg4OTM5MUMxMDY4LjUyMTczOSA0NC45NjY5NTcgMTAyMy41NTQ3ODMgMCA5NzkuMzQ0Njk2IDBIODkuMDg4QzQzLjc2NDg3IDAgMCA0NS4xNDUwNDMgMCA5MC4yNDU1NjV6TTkzNS4zNTcyMTcgNzU1Ljk3OTEzSDEzNC4wOTk0NzhjLTI1LjgyMjYwOSAwLTQ2LjAzNTQ3OC0yMC4zNDY0MzUtNDYuMDM1NDc4LTQyLjk2MzQ3OCAwLTIyLjU3MjUyMi0xLjkxNDQzNS01NTIuMzgxMjE3IDAtNTc4Ljk2MDY5NSAxLjk1ODk1Ny0yNi42MjQgMjIuMzQ5OTEzLTQ1LjI3ODYwOSA0NS42MzQ3ODMtNDUuMjc4NjA5aDgwMC45OTA2MDhjMjIuMjYwODcgMCA0NS40MTIxNzQgMjMuNTk2NTIyIDQ1LjQxMjE3NCA0NS4wNTZ2NTc5LjAwNTIxN2MwIDIzLjgxOTEzLTIyLjA4Mjc4MyA0My4xNDE1NjUtNDQuNzQ0MzQ4IDQzLjE0MTU2NXoiLz48L3N2Zz4=;" vertex="1" parent="Bt3o9h0TUUA31ttmLjAb-46">
          <mxGeometry x="30" y="20" width="52.25" height="50" as="geometry" />
        </mxCell>
        <mxCell id="Bt3o9h0TUUA31ttmLjAb-127" value="&lt;b&gt;&lt;font face=&quot;Lucida Console&quot; style=&quot;font-size: 14px;&quot;&gt;客户端&lt;/font&gt;&lt;/b&gt;" style="text;html=1;align=center;verticalAlign=middle;resizable=0;points=[];autosize=1;strokeColor=none;fillColor=none;" vertex="1" parent="Bt3o9h0TUUA31ttmLjAb-46">
          <mxGeometry x="70" y="60" width="70" height="30" as="geometry" />
        </mxCell>
        <mxCell id="Bt3o9h0TUUA31ttmLjAb-109" style="edgeStyle=orthogonalEdgeStyle;rounded=0;orthogonalLoop=1;jettySize=auto;html=1;entryX=0.5;entryY=0;entryDx=0;entryDy=0;" edge="1" parent="1" source="Bt3o9h0TUUA31ttmLjAb-58" target="Bt3o9h0TUUA31ttmLjAb-100">
          <mxGeometry relative="1" as="geometry" />
        </mxCell>
        <mxCell id="Bt3o9h0TUUA31ttmLjAb-58" value="" style="swimlane;startSize=0;hachureGap=4;fontFamily=Georgia;dashed=1;strokeColor=#FF9933;strokeWidth=2;rounded=1;opacity=80;shadow=0;" vertex="1" parent="1">
          <mxGeometry x="190" y="-710" width="590" height="130" as="geometry" />
        </mxCell>
        <mxCell id="Bt3o9h0TUUA31ttmLjAb-56" value="" style="shape=image;verticalLabelPosition=bottom;labelBackgroundColor=default;verticalAlign=top;aspect=fixed;imageAspect=0;image=data:image/svg+xml,PHN2ZyB4bWxuczp4bGluaz0iaHR0cDovL3d3dy53My5vcmcvMTk5OS94bGluayIgeG1sbnM9Imh0dHA6Ly93d3cudzMub3JnLzIwMDAvc3ZnIiBoZWlnaHQ9IjIwMCIgd2lkdGg9IjIwMCIgdmVyc2lvbj0iMS4xIiB2aWV3Qm94PSIwIDAgMTAyNCAxMDI0IiBjbGFzcz0iaWNvbiI+PHBhdGggZmlsbD0iIzEzMjI3YSIgZD0iTTUxMiAwTDY4LjQ4IDI1NnY1MTJMNTEyIDEwMjRsNDQzLjUyLTI1NlYyNTZMNTEyIDB6IG0yNTYgNzA3Ljg0YzAgMzAuMDgtMjcuNTYyNjY3IDU1LjA0LTY1LjIzNzMzMyA1NS4wNC0yNi45MjI2NjcgMC01Ny42NDI2NjctMTAuODgtNzYuODQyNjY3LTM0LjU2bC0yNTYtMzA0LjY4MjY2N3YyODQuMTZjMCAzMC43NjI2NjctMjQuMzIgNTUuMDQtNTQuMzU3MzMzIDU1LjA0SDMxMi4zMmMtMzAuNzYyNjY3IDAtNTUuMDQtMjUuNi01NS4wNC01NS4wNFYzMTYuMTZjMC0zMC4wOCAyNi44OC01NS4wNCA2NC01NS4wNCAyNy41NjI2NjcgMCA1OC44OCAxMC44OCA3OC4wOCAzNC41NmwyNTQuNzIgMzA0LjY4MjY2N1YzMTYuMTZjMC0zMC43NjI2NjcgMjUuNi01NS4wNCA1NS4wNC01NS4wNGgzLjJjMzAuNzIgMCA1NS4wNCAyNS42IDU1LjA0IDU1LjA0djM5MS42OEg3Njh6Ii8+PC9zdmc+;" vertex="1" parent="Bt3o9h0TUUA31ttmLjAb-58">
          <mxGeometry x="70" y="27.5" width="75" height="75" as="geometry" />
        </mxCell>
        <mxCell id="Bt3o9h0TUUA31ttmLjAb-68" value="" style="shape=image;verticalLabelPosition=bottom;labelBackgroundColor=default;verticalAlign=top;aspect=fixed;imageAspect=0;image=data:image/svg+xml,PHN2ZyB4bWxuczp4bGluaz0iaHR0cDovL3d3dy53My5vcmcvMTk5OS94bGluayIgeG1sbnM9Imh0dHA6Ly93d3cudzMub3JnLzIwMDAvc3ZnIiBoZWlnaHQ9IjIwMCIgd2lkdGg9IjIwMCIgdmVyc2lvbj0iMS4xIiB2aWV3Qm94PSIwIDAgMTAyNCAxMDI0IiBjbGFzcz0iaWNvbiI+PHBhdGggZmlsbD0iIzEzMjI3YSIgZD0iTTUxMiAwTDY4LjQ4IDI1NnY1MTJMNTEyIDEwMjRsNDQzLjUyLTI1NlYyNTZMNTEyIDB6IG0yNTYgNzA3Ljg0YzAgMzAuMDgtMjcuNTYyNjY3IDU1LjA0LTY1LjIzNzMzMyA1NS4wNC0yNi45MjI2NjcgMC01Ny42NDI2NjctMTAuODgtNzYuODQyNjY3LTM0LjU2bC0yNTYtMzA0LjY4MjY2N3YyODQuMTZjMCAzMC43NjI2NjctMjQuMzIgNTUuMDQtNTQuMzU3MzMzIDU1LjA0SDMxMi4zMmMtMzAuNzYyNjY3IDAtNTUuMDQtMjUuNi01NS4wNC01NS4wNFYzMTYuMTZjMC0zMC4wOCAyNi44OC01NS4wNCA2NC01NS4wNCAyNy41NjI2NjcgMCA1OC44OCAxMC44OCA3OC4wOCAzNC41NmwyNTQuNzIgMzA0LjY4MjY2N1YzMTYuMTZjMC0zMC43NjI2NjcgMjUuNi01NS4wNCA1NS4wNC01NS4wNGgzLjJjMzAuNzIgMCA1NS4wNCAyNS42IDU1LjA0IDU1LjA0djM5MS42OEg3Njh6Ii8+PC9zdmc+;" vertex="1" parent="Bt3o9h0TUUA31ttmLjAb-58">
          <mxGeometry x="260" y="27.5" width="75" height="75" as="geometry" />
        </mxCell>
        <mxCell id="Bt3o9h0TUUA31ttmLjAb-69" value="" style="shape=image;verticalLabelPosition=bottom;labelBackgroundColor=default;verticalAlign=top;aspect=fixed;imageAspect=0;image=data:image/svg+xml,PHN2ZyB4bWxuczp4bGluaz0iaHR0cDovL3d3dy53My5vcmcvMTk5OS94bGluayIgeG1sbnM9Imh0dHA6Ly93d3cudzMub3JnLzIwMDAvc3ZnIiBoZWlnaHQ9IjIwMCIgd2lkdGg9IjIwMCIgdmVyc2lvbj0iMS4xIiB2aWV3Qm94PSIwIDAgMTAyNCAxMDI0IiBjbGFzcz0iaWNvbiI+PHBhdGggZmlsbD0iIzEzMjI3YSIgZD0iTTUxMiAwTDY4LjQ4IDI1NnY1MTJMNTEyIDEwMjRsNDQzLjUyLTI1NlYyNTZMNTEyIDB6IG0yNTYgNzA3Ljg0YzAgMzAuMDgtMjcuNTYyNjY3IDU1LjA0LTY1LjIzNzMzMyA1NS4wNC0yNi45MjI2NjcgMC01Ny42NDI2NjctMTAuODgtNzYuODQyNjY3LTM0LjU2bC0yNTYtMzA0LjY4MjY2N3YyODQuMTZjMCAzMC43NjI2NjctMjQuMzIgNTUuMDQtNTQuMzU3MzMzIDU1LjA0SDMxMi4zMmMtMzAuNzYyNjY3IDAtNTUuMDQtMjUuNi01NS4wNC01NS4wNFYzMTYuMTZjMC0zMC4wOCAyNi44OC01NS4wNCA2NC01NS4wNCAyNy41NjI2NjcgMCA1OC44OCAxMC44OCA3OC4wOCAzNC41NmwyNTQuNzIgMzA0LjY4MjY2N1YzMTYuMTZjMC0zMC43NjI2NjcgMjUuNi01NS4wNCA1NS4wNC01NS4wNGgzLjJjMzAuNzIgMCA1NS4wNCAyNS42IDU1LjA0IDU1LjA0djM5MS42OEg3Njh6Ii8+PC9zdmc+;" vertex="1" parent="Bt3o9h0TUUA31ttmLjAb-58">
          <mxGeometry x="450" y="27.5" width="75" height="75" as="geometry" />
        </mxCell>
        <mxCell id="Bt3o9h0TUUA31ttmLjAb-129" value="&lt;font size=&quot;1&quot; face=&quot;Lucida Console&quot;&gt;&lt;b style=&quot;font-size: 14px;&quot;&gt;节点Nginx&lt;/b&gt;&lt;/font&gt;" style="text;html=1;align=center;verticalAlign=middle;resizable=0;points=[];autosize=1;strokeColor=none;fillColor=none;" vertex="1" parent="Bt3o9h0TUUA31ttmLjAb-58">
          <mxGeometry y="96" width="100" height="30" as="geometry" />
        </mxCell>
        <mxCell id="Bt3o9h0TUUA31ttmLjAb-76" value="文件存储" style="shape=image;verticalLabelPosition=bottom;labelBackgroundColor=default;verticalAlign=top;aspect=fixed;imageAspect=0;image=data:image/svg+xml,PHN2ZyB4bWxuczp4bGluaz0iaHR0cDovL3d3dy53My5vcmcvMTk5OS94bGluayIgeG1sbnM9Imh0dHA6Ly93d3cudzMub3JnLzIwMDAvc3ZnIiBoZWlnaHQ9IjIwMCIgd2lkdGg9IjIwMCIgdmVyc2lvbj0iMS4xIiB2aWV3Qm94PSIwIDAgMTAyNCAxMDI0IiBjbGFzcz0iaWNvbiI+PHBhdGggZmlsbD0iIzNFNkVGNyIgZD0iTTg4My4yIDg5LjZjMC0zOC40LTMyLTY0LTcwLjQtNjRINzAuNGMtMzguNCAwLTY0IDMyLTY0IDY0djIwNC44aDg4My4yVjg5LjZ6TTM0NS42IDE5OC40SDEyOFYxMjEuNmgyMjR2NzYuOHogbTIzMC40IDBjLTEyLjggMC0yNS42LTYuNC0zMi0xOS4yLTYuNC0xMi44LTYuNC0yNS42IDAtMzguNCAwLTEyLjggMTkuMi0xOS4yIDMyLTE5LjIgMTkuMiAwIDM4LjQgMTkuMiAzOC40IDM4LjRzLTEyLjggMzguNC0zOC40IDM4LjR6IG0xMjggMGMtMTkuMiAwLTM4LjQtMTkuMi0zOC40LTM4LjRzMTkuMi0zOC40IDM4LjQtMzguNCAzOC40IDE5LjIgMzguNCAzOC40LTE5LjIgMzguNC0zOC40IDM4LjR6IG0tMzU4LjQgNjQwdjM4LjRIMTI4di03Ni44aDE5OC40Yy0xMi44LTMyLTE5LjItNjQtMjUuNi05NkgwdjIyNGMwIDI1LjYgMTkuMiA0NC44IDQ0LjggNDQuOGg0MjIuNGMtNTEuMi0zMi04OS42LTc2LjgtMTIxLjYtMTM0LjR6TTMyMCA1NDRIMTI4VjQ2Ny4yaDIyNHYxOS4yYzE5LjItNDQuOCA1MS4yLTgzLjIgOTYtMTE1LjJIMFY2NDBoMzAwLjhMMzIwIDU0NHogbTAgME04MDYuNCA2MDEuNkg1NjkuNmMtNi40IDAtMTIuOCA2LjQtMTIuOCAxMi44czYuNCAxMi44IDEyLjggMTIuOGgyMzYuOGM2LjQgMCAxMi44LTYuNCAxMi44LTEyLjhzLTYuNC0xMi44LTEyLjgtMTIuOHogbTAgMCIvPjxwYXRoIGZpbGw9IiMzRTZFRjciIGQ9Ik02OTEuMiAzMjYuNGMtMTg1LjYgMC0zMzIuOCAxNDcuMi0zMzIuOCAzMzIuOCAwIDE4NS42IDE0Ny4yIDMzMi44IDMzMi44IDMzMi44IDE4NS42IDAgMzMyLjgtMTQ3LjIgMzMyLjgtMzMyLjggMC0xNzkuMi0xNDcuMi0zMzIuOC0zMzIuOC0zMzIuOHogbTE0Ny4yIDQ5Mi44SDUzNy42cy0yNS42IDYuNC0yNS42LTI1LjZ2LTI1NnMwLTI1LjYgMzItMjUuNmgxMDguOHMxMi44IDAgMjUuNiAxMi44YzEyLjggMTkuMiAxOS4yIDI1LjYgMTkuMiAyNS42czYuNCA2LjQgMTIuOCA2LjRoMTM0LjRzMjUuNiAwIDI1LjYgMjUuNnYyMjRjLTYuNC0xMi44LTYuNCAxMi44LTMyIDEyLjh6IG0wIDAiLz48L3N2Zz4=;fontStyle=1;fontSize=14;fontColor=#000000;fontFamily=Lucida Console;shadow=0;" vertex="1" parent="1">
          <mxGeometry x="1000" y="-62" width="70" height="70" as="geometry" />
        </mxCell>
        <mxCell id="Bt3o9h0TUUA31ttmLjAb-77" value="" style="swimlane;startSize=0;hachureGap=4;fontFamily=Georgia;dashed=1;strokeColor=#FF9933;strokeWidth=2;rounded=1;opacity=80;shadow=0;" vertex="1" parent="1">
          <mxGeometry x="980" y="-192" width="100" height="240" as="geometry" />
        </mxCell>
        <mxCell id="Bt3o9h0TUUA31ttmLjAb-1" value="M" style="image;sketch=0;aspect=fixed;html=1;points=[];align=center;fontSize=12;image=img/lib/mscae/Cache_Redis_Product.svg;hachureGap=4;jiggle=2;curveFitting=1;fontFamily=Georgia;fontStyle=1;shadow=0;" vertex="1" parent="1">
          <mxGeometry x="214" y="-155" width="50" height="42" as="geometry" />
        </mxCell>
        <mxCell id="Bt3o9h0TUUA31ttmLjAb-2" value="S" style="image;sketch=0;aspect=fixed;html=1;points=[];align=center;fontSize=12;image=img/lib/mscae/Cache_Redis_Product.svg;hachureGap=4;jiggle=2;curveFitting=1;fontFamily=Georgia;fontStyle=1;shadow=0;" vertex="1" parent="1">
          <mxGeometry x="264" y="-75" width="50" height="42" as="geometry" />
        </mxCell>
        <mxCell id="Bt3o9h0TUUA31ttmLjAb-4" value="S" style="image;sketch=0;aspect=fixed;html=1;points=[];align=center;fontSize=12;image=img/lib/mscae/Cache_Redis_Product.svg;hachureGap=4;jiggle=2;curveFitting=1;fontFamily=Georgia;fontStyle=1;shadow=0;" vertex="1" parent="1">
          <mxGeometry x="164" y="-75" width="50" height="42" as="geometry" />
        </mxCell>
        <mxCell id="Bt3o9h0TUUA31ttmLjAb-28" value="" style="swimlane;startSize=0;hachureGap=4;fontFamily=Georgia;dashed=1;strokeColor=#FF9933;strokeWidth=2;rounded=1;opacity=80;shadow=0;" vertex="1" parent="1">
          <mxGeometry x="141" y="-180" width="200" height="205" as="geometry" />
        </mxCell>
        <mxCell id="Bt3o9h0TUUA31ttmLjAb-31" value="&lt;h3&gt;&lt;font style=&quot;font-size: 14px;&quot; color=&quot;#212121&quot; face=&quot;Lucida Console&quot;&gt;Redis集群&lt;/font&gt;&lt;/h3&gt;" style="text;html=1;align=center;verticalAlign=middle;resizable=0;points=[];autosize=1;strokeColor=none;fillColor=none;fontFamily=Architects Daughter;fontSource=https%3A%2F%2Ffonts.googleapis.com%2Fcss%3Ffamily%3DArchitects%2BDaughter;" vertex="1" parent="1">
          <mxGeometry x="194" y="-22" width="100" height="60" as="geometry" />
        </mxCell>
        <mxCell id="Bt3o9h0TUUA31ttmLjAb-32" value="" style="swimlane;startSize=0;hachureGap=4;fontFamily=Georgia;dashed=1;strokeColor=#FF9933;strokeWidth=2;rounded=1;opacity=80;shadow=0;" vertex="1" parent="1">
          <mxGeometry x="420" y="-178" width="200" height="205" as="geometry" />
        </mxCell>
        <mxCell id="Bt3o9h0TUUA31ttmLjAb-14" value="" style="shape=image;verticalLabelPosition=bottom;labelBackgroundColor=default;verticalAlign=top;aspect=fixed;imageAspect=0;image=data:image/svg+xml,PHN2ZyB4bWxuczp4bGluaz0iaHR0cDovL3d3dy53My5vcmcvMTk5OS94bGluayIgeG1sbnM9Imh0dHA6Ly93d3cudzMub3JnLzIwMDAvc3ZnIiBoZWlnaHQ9IjIwMCIgd2lkdGg9IjIwMCIgdmVyc2lvbj0iMS4xIiB2aWV3Qm94PSIwIDAgMTAyNCAxMDI0IiBjbGFzcz0iaWNvbiI+PHBhdGggZmlsbD0iIzEyOTZkYiIgZD0iTTU0NS40MDAwODcgNTgzLjA1MTYzNmw3NS4wMDggNDYuMDhjNDIuMzU2MzY0LTQ1Ljk4NjkwOSAxMTAuMTQ5ODE4LTUxLjIyMzI3MyAxNTguMjU0NTQ2LTEyLjIxODE4MSA0OC4xMjggMzkuMDA1MDkxIDYxLjUzMzA5MSAxMTAuMDggMzEuMzI1MDkxIDE2NS45MTEyNzItMzAuMjMxMjczIDU1LjgwOC05NC42NTAxODIgNzguOTY0MzY0LTE1MC4zODgzNjQgNTQuMDM5MjczLTU1LjczODE4Mi0yNC45NDgzNjQtODUuMzg3NjM2LTkwLjIwNTA5MS02OS4yMTMwOTEtMTUyLjMyTDUxNC4yMTQ2MzMgNjM3LjY5NmMtMjcuMzQ1NDU1IDMzLjc0NTQ1NS02NC44NjEwOTEgNTYuMjczNDU1LTEwNi4xMjM2MzcgNjMuNjk3NDU1djcwLjY1NmM1OC41MzA5MDkgMTYuMTA0NzI3IDk2LjY5ODE4MiA3Ni4xMjUwOTEgODkuMDY0NzI4IDE0MC4wNzg1NDVDNDg5LjU0NTU0MiA5NzYuMDU4MTgyIDQzOC41MDg0NTEgMTAyNCAzNzguMDY5MTc4IDEwMjRjLTYwLjQzOTI3MyAwLTExMS40Mjk4MTgtNDcuOTQxODE4LTExOS4wNjMyNzMtMTExLjg3Mi03LjYxMDE4Mi02My45NTM0NTUgMzAuNTU3MDkxLTEyMy45NzM4MTggODkuMDY0NzI4LTE0MC4wNzg1NDV2LTcwLjY1NkMyNjEuMjg2NjMzIDY4NS45MTcwOTEgMTk3LjcwNTU0MiA2MDUuODM1NjM2IDE5Ny43MDU1NDIgNTEyczYzLjU4MTA5MS0xNzMuOTE3MDkxIDE1MC4zNjUwOTEtMTg5LjM5MzQ1NXYtNzAuNjU2Yy01OC41MDc2MzYtMTYuMTA0NzI3LTk2LjY3NDkwOS03Ni4xMjUwOTEtODkuMDY0NzI4LTE0MC4wNzg1NDVDMjY2LjYzOTM2IDQ3Ljk0MTgxOCAzMTcuNjUzMTc4IDAgMzc4LjA2OTE3OCAwYzYwLjQzOTI3MyAwIDExMS40NzYzNjQgNDcuOTQxODE4IDExOS4wNjMyNzMgMTExLjg3MiA3LjYzMzQ1NSA2My45NTM0NTUtMzAuNTMzODE4IDEyMy45NzM4MTgtODkuMDQxNDU1IDE0MC4wNzg1NDV2NzAuNjU2YzQwLjU4NzYzNiA3LjMwNzYzNiA3Ny41OTEyNzMgMjkuMjUzODE4IDEwNC44NDM2MzcgNjIuMTM4MTgybDc3LjQwNTA5MS00Ny41OTI3MjdjLTEwLjAwNzI3My0zOC41NjI5MDktMi41Ni03OS44NzIgMjAuMTMwOTA5LTExMS43MDkwOTEgMjIuNjkwOTA5LTMxLjgzNzA5MSA1OC4wMTg5MDktNTAuNTcxNjM2IDk1LjUxMTI3Mi01MC42MTgxODIgNTQuNDU4MTgyIDAgMTAyLjA5NzQ1NSAzOS4wOTgxODIgMTE2LjAzNzgxOSA5NS4yNTUyNzMgMTMuOTQwMzY0IDU2LjE1NzA5MS05LjMwOTA5MSAxMTUuMjY5ODE4LTU2LjY0NTgxOSAxNDQuMDExNjM2LTQ3LjMzNjcyNyAyOC43MTg1NDUtMTA2Ljg5MTYzNiAxOS44NzQ5MDktMTQ1LjAzNTYzNi0yMS41OTcwOTFsLTc1LjYxMzA5MSA0Ni42MTUyNzNjOC41ODc2MzYgMjIuNDU4MTgyIDEzLjM4MTgxOCA0Ny4xMDQgMTMuMzgxODE4IDcyLjg5MDE4MmEyMDIuNjgyMTgyIDIwMi42ODIxODIgMCAwIDEtMTIuNzA2OTA5IDcxLjA1MTYzNnogbTEwOC4wMDg3MjggMTA0Ljg5MDE4MmMtMTUuNTkyNzI3IDMwLjkyOTQ1NS00Ljk1NzA5MSA2OS40OTIzNjQgMjMuOTAxMDkgODYuNDM0OTA5IDI4Ljg1ODE4MiAxNi45MTkyNzMgNjUuMDkzODE4IDUuOTExMjczIDgxLjIyMTgxOS0yNC42OTIzNjMgMTYuMTUxMjczLTMwLjYyNjkwOSA2LjE2NzI3My02OS4zNzYtMjIuMzg4MzY0LTg2Ljg3NzA5MS0yOC41NTU2MzYtMTcuNTAxMDkxLTY0Ljk3NzQ1NS03LjIxNDU0NS04MS42NjQgMjMuMDg2NTQ1bC0xLjA3MDU0NSAyLjA0OHogbTEuMTQwMzYzLTM1Mi4xMzk2MzZjMTcuMzM4MTgyIDI5Ljg1ODkwOSA1My45OTI3MjcgMzkuMjM3ODE4IDgyLjE1MjcyNyAyMS4wMzg1NDUgMjguMTM2NzI3LTE4LjIyMjU0NSAzNy4yODI5MDktNTcuMjI3NjM2IDIwLjQ4LTg3LjQxMjM2My0xNi44MjYxODItMzAuMjA4LTUzLjI5NDU0NS00MC4zMDgzNjQtODEuNzgwMzYzLTIyLjY2NzYzNy0yOC40NjI1NDUgMTcuNjQwNzI3LTM4LjI4MzYzNiA1Ni40NTk2MzYtMjEuOTkyNzI3IDg2Ljk5MzQ1NWwxLjE0MDM2MyAyLjA0OHpNMzc4LjA2OTE3OCA2MjcuMmM1OS42NzEyNzMgMCAxMDguMDMyLTUxLjU3MjM2NCAxMDguMDMyLTExNS4ycy00OC4zNjA3MjctMTE1LjItMTA4LjAzMi0xMTUuMmMtNTkuNjQ4IDAtMTA4LjAwODcyNyA1MS41NzIzNjQtMTA4LjAwODcyNyAxMTUuMnM0OC4zNjA3MjcgMTE1LjIgMTA4LjAwODcyNyAxMTUuMnogbTAgMzMyLjgyMzI3M2MyMS40NTc0NTUgMCA0MS4yNjI1NDUtMTIuMTk0OTA5IDUxLjk5MTI3My0zMiAxMC43MDU0NTUtMTkuNzgxODE4IDEwLjcwNTQ1NS00NC4yMTgxODIgMC02NC0xMC43MDU0NTUtMTkuODA1MDkxLTMwLjUzMzgxOC0zMi01MS45OTEyNzMtMzItMzMuMTQwMzY0IDAtNTkuOTk3MDkxIDI4LjY0ODcyNy01OS45OTcwOTEgNjRzMjYuODU2NzI3IDY0IDU5Ljk5NzA5MSA2NHogbTAtNzY4LjA0NjU0NmMyMS40NTc0NTUgMCA0MS4yNjI1NDUtMTIuMTk0OTA5IDUxLjk5MTI3My0zMiAxMC43MDU0NTUtMTkuNzgxODE4IDEwLjcwNTQ1NS00NC4yMTgxODIgMC02NC0xMC43MDU0NTUtMTkuODA1MDkxLTMwLjUzMzgxOC0zMi01MS45OTEyNzMtMzItMzMuMTQwMzY0IDAtNTkuOTk3MDkxIDI4LjY0ODcyNy01OS45OTcwOTEgNjRzMjYuODU2NzI3IDY0IDU5Ljk5NzA5MSA2NHoiLz48L3N2Zz4=;fontFamily=Georgia;fontStyle=1;shadow=0;" vertex="1" parent="Bt3o9h0TUUA31ttmLjAb-32">
          <mxGeometry x="71" y="27" width="60" height="60" as="geometry" />
        </mxCell>
        <mxCell id="Bt3o9h0TUUA31ttmLjAb-13" value="" style="shape=image;verticalLabelPosition=bottom;labelBackgroundColor=default;verticalAlign=top;aspect=fixed;imageAspect=0;image=data:image/svg+xml,PHN2ZyB4bWxuczp4bGluaz0iaHR0cDovL3d3dy53My5vcmcvMTk5OS94bGluayIgeG1sbnM9Imh0dHA6Ly93d3cudzMub3JnLzIwMDAvc3ZnIiBoZWlnaHQ9IjIwMCIgd2lkdGg9IjIwMCIgdmVyc2lvbj0iMS4xIiB2aWV3Qm94PSIwIDAgMTAyNCAxMDI0IiBjbGFzcz0iaWNvbiI+PHBhdGggZmlsbD0iIzEyOTZkYiIgZD0iTTU0NS40MDAwODcgNTgzLjA1MTYzNmw3NS4wMDggNDYuMDhjNDIuMzU2MzY0LTQ1Ljk4NjkwOSAxMTAuMTQ5ODE4LTUxLjIyMzI3MyAxNTguMjU0NTQ2LTEyLjIxODE4MSA0OC4xMjggMzkuMDA1MDkxIDYxLjUzMzA5MSAxMTAuMDggMzEuMzI1MDkxIDE2NS45MTEyNzItMzAuMjMxMjczIDU1LjgwOC05NC42NTAxODIgNzguOTY0MzY0LTE1MC4zODgzNjQgNTQuMDM5MjczLTU1LjczODE4Mi0yNC45NDgzNjQtODUuMzg3NjM2LTkwLjIwNTA5MS02OS4yMTMwOTEtMTUyLjMyTDUxNC4yMTQ2MzMgNjM3LjY5NmMtMjcuMzQ1NDU1IDMzLjc0NTQ1NS02NC44NjEwOTEgNTYuMjczNDU1LTEwNi4xMjM2MzcgNjMuNjk3NDU1djcwLjY1NmM1OC41MzA5MDkgMTYuMTA0NzI3IDk2LjY5ODE4MiA3Ni4xMjUwOTEgODkuMDY0NzI4IDE0MC4wNzg1NDVDNDg5LjU0NTU0MiA5NzYuMDU4MTgyIDQzOC41MDg0NTEgMTAyNCAzNzguMDY5MTc4IDEwMjRjLTYwLjQzOTI3MyAwLTExMS40Mjk4MTgtNDcuOTQxODE4LTExOS4wNjMyNzMtMTExLjg3Mi03LjYxMDE4Mi02My45NTM0NTUgMzAuNTU3MDkxLTEyMy45NzM4MTggODkuMDY0NzI4LTE0MC4wNzg1NDV2LTcwLjY1NkMyNjEuMjg2NjMzIDY4NS45MTcwOTEgMTk3LjcwNTU0MiA2MDUuODM1NjM2IDE5Ny43MDU1NDIgNTEyczYzLjU4MTA5MS0xNzMuOTE3MDkxIDE1MC4zNjUwOTEtMTg5LjM5MzQ1NXYtNzAuNjU2Yy01OC41MDc2MzYtMTYuMTA0NzI3LTk2LjY3NDkwOS03Ni4xMjUwOTEtODkuMDY0NzI4LTE0MC4wNzg1NDVDMjY2LjYzOTM2IDQ3Ljk0MTgxOCAzMTcuNjUzMTc4IDAgMzc4LjA2OTE3OCAwYzYwLjQzOTI3MyAwIDExMS40NzYzNjQgNDcuOTQxODE4IDExOS4wNjMyNzMgMTExLjg3MiA3LjYzMzQ1NSA2My45NTM0NTUtMzAuNTMzODE4IDEyMy45NzM4MTgtODkuMDQxNDU1IDE0MC4wNzg1NDV2NzAuNjU2YzQwLjU4NzYzNiA3LjMwNzYzNiA3Ny41OTEyNzMgMjkuMjUzODE4IDEwNC44NDM2MzcgNjIuMTM4MTgybDc3LjQwNTA5MS00Ny41OTI3MjdjLTEwLjAwNzI3My0zOC41NjI5MDktMi41Ni03OS44NzIgMjAuMTMwOTA5LTExMS43MDkwOTEgMjIuNjkwOTA5LTMxLjgzNzA5MSA1OC4wMTg5MDktNTAuNTcxNjM2IDk1LjUxMTI3Mi01MC42MTgxODIgNTQuNDU4MTgyIDAgMTAyLjA5NzQ1NSAzOS4wOTgxODIgMTE2LjAzNzgxOSA5NS4yNTUyNzMgMTMuOTQwMzY0IDU2LjE1NzA5MS05LjMwOTA5MSAxMTUuMjY5ODE4LTU2LjY0NTgxOSAxNDQuMDExNjM2LTQ3LjMzNjcyNyAyOC43MTg1NDUtMTA2Ljg5MTYzNiAxOS44NzQ5MDktMTQ1LjAzNTYzNi0yMS41OTcwOTFsLTc1LjYxMzA5MSA0Ni42MTUyNzNjOC41ODc2MzYgMjIuNDU4MTgyIDEzLjM4MTgxOCA0Ny4xMDQgMTMuMzgxODE4IDcyLjg5MDE4MmEyMDIuNjgyMTgyIDIwMi42ODIxODIgMCAwIDEtMTIuNzA2OTA5IDcxLjA1MTYzNnogbTEwOC4wMDg3MjggMTA0Ljg5MDE4MmMtMTUuNTkyNzI3IDMwLjkyOTQ1NS00Ljk1NzA5MSA2OS40OTIzNjQgMjMuOTAxMDkgODYuNDM0OTA5IDI4Ljg1ODE4MiAxNi45MTkyNzMgNjUuMDkzODE4IDUuOTExMjczIDgxLjIyMTgxOS0yNC42OTIzNjMgMTYuMTUxMjczLTMwLjYyNjkwOSA2LjE2NzI3My02OS4zNzYtMjIuMzg4MzY0LTg2Ljg3NzA5MS0yOC41NTU2MzYtMTcuNTAxMDkxLTY0Ljk3NzQ1NS03LjIxNDU0NS04MS42NjQgMjMuMDg2NTQ1bC0xLjA3MDU0NSAyLjA0OHogbTEuMTQwMzYzLTM1Mi4xMzk2MzZjMTcuMzM4MTgyIDI5Ljg1ODkwOSA1My45OTI3MjcgMzkuMjM3ODE4IDgyLjE1MjcyNyAyMS4wMzg1NDUgMjguMTM2NzI3LTE4LjIyMjU0NSAzNy4yODI5MDktNTcuMjI3NjM2IDIwLjQ4LTg3LjQxMjM2My0xNi44MjYxODItMzAuMjA4LTUzLjI5NDU0NS00MC4zMDgzNjQtODEuNzgwMzYzLTIyLjY2NzYzNy0yOC40NjI1NDUgMTcuNjQwNzI3LTM4LjI4MzYzNiA1Ni40NTk2MzYtMjEuOTkyNzI3IDg2Ljk5MzQ1NWwxLjE0MDM2MyAyLjA0OHpNMzc4LjA2OTE3OCA2MjcuMmM1OS42NzEyNzMgMCAxMDguMDMyLTUxLjU3MjM2NCAxMDguMDMyLTExNS4ycy00OC4zNjA3MjctMTE1LjItMTA4LjAzMi0xMTUuMmMtNTkuNjQ4IDAtMTA4LjAwODcyNyA1MS41NzIzNjQtMTA4LjAwODcyNyAxMTUuMnM0OC4zNjA3MjcgMTE1LjIgMTA4LjAwODcyNyAxMTUuMnogbTAgMzMyLjgyMzI3M2MyMS40NTc0NTUgMCA0MS4yNjI1NDUtMTIuMTk0OTA5IDUxLjk5MTI3My0zMiAxMC43MDU0NTUtMTkuNzgxODE4IDEwLjcwNTQ1NS00NC4yMTgxODIgMC02NC0xMC43MDU0NTUtMTkuODA1MDkxLTMwLjUzMzgxOC0zMi01MS45OTEyNzMtMzItMzMuMTQwMzY0IDAtNTkuOTk3MDkxIDI4LjY0ODcyNy01OS45OTcwOTEgNjRzMjYuODU2NzI3IDY0IDU5Ljk5NzA5MSA2NHogbTAtNzY4LjA0NjU0NmMyMS40NTc0NTUgMCA0MS4yNjI1NDUtMTIuMTk0OTA5IDUxLjk5MTI3My0zMiAxMC43MDU0NTUtMTkuNzgxODE4IDEwLjcwNTQ1NS00NC4yMTgxODIgMC02NC0xMC43MDU0NTUtMTkuODA1MDkxLTMwLjUzMzgxOC0zMi01MS45OTEyNzMtMzItMzMuMTQwMzY0IDAtNTkuOTk3MDkxIDI4LjY0ODcyNy01OS45OTcwOTEgNjRzMjYuODU2NzI3IDY0IDU5Ljk5NzA5MSA2NHoiLz48L3N2Zz4=;fontFamily=Georgia;fontStyle=1;shadow=0;" vertex="1" parent="Bt3o9h0TUUA31ttmLjAb-32">
          <mxGeometry x="20" y="98" width="60" height="60" as="geometry" />
        </mxCell>
        <mxCell id="Bt3o9h0TUUA31ttmLjAb-12" value="" style="shape=image;verticalLabelPosition=bottom;labelBackgroundColor=default;verticalAlign=top;aspect=fixed;imageAspect=0;image=data:image/svg+xml,PHN2ZyB4bWxuczp4bGluaz0iaHR0cDovL3d3dy53My5vcmcvMTk5OS94bGluayIgeG1sbnM9Imh0dHA6Ly93d3cudzMub3JnLzIwMDAvc3ZnIiBoZWlnaHQ9IjIwMCIgd2lkdGg9IjIwMCIgdmVyc2lvbj0iMS4xIiB2aWV3Qm94PSIwIDAgMTAyNCAxMDI0IiBjbGFzcz0iaWNvbiI+PHBhdGggZmlsbD0iIzEyOTZkYiIgZD0iTTU0NS40MDAwODcgNTgzLjA1MTYzNmw3NS4wMDggNDYuMDhjNDIuMzU2MzY0LTQ1Ljk4NjkwOSAxMTAuMTQ5ODE4LTUxLjIyMzI3MyAxNTguMjU0NTQ2LTEyLjIxODE4MSA0OC4xMjggMzkuMDA1MDkxIDYxLjUzMzA5MSAxMTAuMDggMzEuMzI1MDkxIDE2NS45MTEyNzItMzAuMjMxMjczIDU1LjgwOC05NC42NTAxODIgNzguOTY0MzY0LTE1MC4zODgzNjQgNTQuMDM5MjczLTU1LjczODE4Mi0yNC45NDgzNjQtODUuMzg3NjM2LTkwLjIwNTA5MS02OS4yMTMwOTEtMTUyLjMyTDUxNC4yMTQ2MzMgNjM3LjY5NmMtMjcuMzQ1NDU1IDMzLjc0NTQ1NS02NC44NjEwOTEgNTYuMjczNDU1LTEwNi4xMjM2MzcgNjMuNjk3NDU1djcwLjY1NmM1OC41MzA5MDkgMTYuMTA0NzI3IDk2LjY5ODE4MiA3Ni4xMjUwOTEgODkuMDY0NzI4IDE0MC4wNzg1NDVDNDg5LjU0NTU0MiA5NzYuMDU4MTgyIDQzOC41MDg0NTEgMTAyNCAzNzguMDY5MTc4IDEwMjRjLTYwLjQzOTI3MyAwLTExMS40Mjk4MTgtNDcuOTQxODE4LTExOS4wNjMyNzMtMTExLjg3Mi03LjYxMDE4Mi02My45NTM0NTUgMzAuNTU3MDkxLTEyMy45NzM4MTggODkuMDY0NzI4LTE0MC4wNzg1NDV2LTcwLjY1NkMyNjEuMjg2NjMzIDY4NS45MTcwOTEgMTk3LjcwNTU0MiA2MDUuODM1NjM2IDE5Ny43MDU1NDIgNTEyczYzLjU4MTA5MS0xNzMuOTE3MDkxIDE1MC4zNjUwOTEtMTg5LjM5MzQ1NXYtNzAuNjU2Yy01OC41MDc2MzYtMTYuMTA0NzI3LTk2LjY3NDkwOS03Ni4xMjUwOTEtODkuMDY0NzI4LTE0MC4wNzg1NDVDMjY2LjYzOTM2IDQ3Ljk0MTgxOCAzMTcuNjUzMTc4IDAgMzc4LjA2OTE3OCAwYzYwLjQzOTI3MyAwIDExMS40NzYzNjQgNDcuOTQxODE4IDExOS4wNjMyNzMgMTExLjg3MiA3LjYzMzQ1NSA2My45NTM0NTUtMzAuNTMzODE4IDEyMy45NzM4MTgtODkuMDQxNDU1IDE0MC4wNzg1NDV2NzAuNjU2YzQwLjU4NzYzNiA3LjMwNzYzNiA3Ny41OTEyNzMgMjkuMjUzODE4IDEwNC44NDM2MzcgNjIuMTM4MTgybDc3LjQwNTA5MS00Ny41OTI3MjdjLTEwLjAwNzI3My0zOC41NjI5MDktMi41Ni03OS44NzIgMjAuMTMwOTA5LTExMS43MDkwOTEgMjIuNjkwOTA5LTMxLjgzNzA5MSA1OC4wMTg5MDktNTAuNTcxNjM2IDk1LjUxMTI3Mi01MC42MTgxODIgNTQuNDU4MTgyIDAgMTAyLjA5NzQ1NSAzOS4wOTgxODIgMTE2LjAzNzgxOSA5NS4yNTUyNzMgMTMuOTQwMzY0IDU2LjE1NzA5MS05LjMwOTA5MSAxMTUuMjY5ODE4LTU2LjY0NTgxOSAxNDQuMDExNjM2LTQ3LjMzNjcyNyAyOC43MTg1NDUtMTA2Ljg5MTYzNiAxOS44NzQ5MDktMTQ1LjAzNTYzNi0yMS41OTcwOTFsLTc1LjYxMzA5MSA0Ni42MTUyNzNjOC41ODc2MzYgMjIuNDU4MTgyIDEzLjM4MTgxOCA0Ny4xMDQgMTMuMzgxODE4IDcyLjg5MDE4MmEyMDIuNjgyMTgyIDIwMi42ODIxODIgMCAwIDEtMTIuNzA2OTA5IDcxLjA1MTYzNnogbTEwOC4wMDg3MjggMTA0Ljg5MDE4MmMtMTUuNTkyNzI3IDMwLjkyOTQ1NS00Ljk1NzA5MSA2OS40OTIzNjQgMjMuOTAxMDkgODYuNDM0OTA5IDI4Ljg1ODE4MiAxNi45MTkyNzMgNjUuMDkzODE4IDUuOTExMjczIDgxLjIyMTgxOS0yNC42OTIzNjMgMTYuMTUxMjczLTMwLjYyNjkwOSA2LjE2NzI3My02OS4zNzYtMjIuMzg4MzY0LTg2Ljg3NzA5MS0yOC41NTU2MzYtMTcuNTAxMDkxLTY0Ljk3NzQ1NS03LjIxNDU0NS04MS42NjQgMjMuMDg2NTQ1bC0xLjA3MDU0NSAyLjA0OHogbTEuMTQwMzYzLTM1Mi4xMzk2MzZjMTcuMzM4MTgyIDI5Ljg1ODkwOSA1My45OTI3MjcgMzkuMjM3ODE4IDgyLjE1MjcyNyAyMS4wMzg1NDUgMjguMTM2NzI3LTE4LjIyMjU0NSAzNy4yODI5MDktNTcuMjI3NjM2IDIwLjQ4LTg3LjQxMjM2My0xNi44MjYxODItMzAuMjA4LTUzLjI5NDU0NS00MC4zMDgzNjQtODEuNzgwMzYzLTIyLjY2NzYzNy0yOC40NjI1NDUgMTcuNjQwNzI3LTM4LjI4MzYzNiA1Ni40NTk2MzYtMjEuOTkyNzI3IDg2Ljk5MzQ1NWwxLjE0MDM2MyAyLjA0OHpNMzc4LjA2OTE3OCA2MjcuMmM1OS42NzEyNzMgMCAxMDguMDMyLTUxLjU3MjM2NCAxMDguMDMyLTExNS4ycy00OC4zNjA3MjctMTE1LjItMTA4LjAzMi0xMTUuMmMtNTkuNjQ4IDAtMTA4LjAwODcyNyA1MS41NzIzNjQtMTA4LjAwODcyNyAxMTUuMnM0OC4zNjA3MjcgMTE1LjIgMTA4LjAwODcyNyAxMTUuMnogbTAgMzMyLjgyMzI3M2MyMS40NTc0NTUgMCA0MS4yNjI1NDUtMTIuMTk0OTA5IDUxLjk5MTI3My0zMiAxMC43MDU0NTUtMTkuNzgxODE4IDEwLjcwNTQ1NS00NC4yMTgxODIgMC02NC0xMC43MDU0NTUtMTkuODA1MDkxLTMwLjUzMzgxOC0zMi01MS45OTEyNzMtMzItMzMuMTQwMzY0IDAtNTkuOTk3MDkxIDI4LjY0ODcyNy01OS45OTcwOTEgNjRzMjYuODU2NzI3IDY0IDU5Ljk5NzA5MSA2NHogbTAtNzY4LjA0NjU0NmMyMS40NTc0NTUgMCA0MS4yNjI1NDUtMTIuMTk0OTA5IDUxLjk5MTI3My0zMiAxMC43MDU0NTUtMTkuNzgxODE4IDEwLjcwNTQ1NS00NC4yMTgxODIgMC02NC0xMC43MDU0NTUtMTkuODA1MDkxLTMwLjUzMzgxOC0zMi01MS45OTEyNzMtMzItMzMuMTQwMzY0IDAtNTkuOTk3MDkxIDI4LjY0ODcyNy01OS45OTcwOTEgNjRzMjYuODU2NzI3IDY0IDU5Ljk5NzA5MSA2NHoiLz48L3N2Zz4=;fontFamily=Georgia;fontStyle=1;shadow=0;" vertex="1" parent="Bt3o9h0TUUA31ttmLjAb-32">
          <mxGeometry x="117" y="98" width="60" height="60" as="geometry" />
        </mxCell>
        <mxCell id="Bt3o9h0TUUA31ttmLjAb-47" value="&lt;font size=&quot;1&quot; face=&quot;Lucida Console&quot;&gt;&lt;b style=&quot;font-size: 14px;&quot;&gt;Kafka集群&lt;/b&gt;&lt;/font&gt;" style="text;html=1;align=center;verticalAlign=middle;resizable=0;points=[];autosize=1;strokeColor=none;fillColor=none;fontFamily=Architects Daughter;fontSource=https%3A%2F%2Ffonts.googleapis.com%2Fcss%3Ffamily%3DArchitects%2BDaughter;" vertex="1" parent="Bt3o9h0TUUA31ttmLjAb-32">
          <mxGeometry x="51" y="175" width="100" height="30" as="geometry" />
        </mxCell>
        <mxCell id="Bt3o9h0TUUA31ttmLjAb-48" value="" style="swimlane;startSize=0;hachureGap=4;fontFamily=Georgia;dashed=1;strokeColor=#FF9933;strokeWidth=2;rounded=1;opacity=80;shadow=0;" vertex="1" parent="1">
          <mxGeometry x="141" y="-480" width="679" height="210" as="geometry" />
        </mxCell>
        <mxCell id="Bt3o9h0TUUA31ttmLjAb-42" value="" style="shape=image;verticalLabelPosition=bottom;labelBackgroundColor=default;verticalAlign=top;aspect=fixed;imageAspect=0;image=data:image/svg+xml,PHN2ZyB4bWxuczp4bGluaz0iaHR0cDovL3d3dy53My5vcmcvMTk5OS94bGluayIgeG1sbnM9Imh0dHA6Ly93d3cudzMub3JnLzIwMDAvc3ZnIiBoZWlnaHQ9IjIwMCIgd2lkdGg9IjIwMCIgdmVyc2lvbj0iMS4xIiB2aWV3Qm94PSIwIDAgMTAyNCAxMDI0IiBjbGFzcz0iaWNvbiI+PHBhdGggZmlsbD0iIzEyOTZEQiIgZD0iTTU0NCA4MDUuNVY3NjhjMC0xNy43LTE0LjMtMzItMzItMzJzLTMyIDE0LjMtMzIgMzJ2MzcuNWMtMzcuMiAxMy4yLTY0IDQ4LjgtNjQgOTAuNSAwIDUyLjkgNDMuMSA5NiA5NiA5NnM5Ni00My4xIDk2LTk2YzAtNDEuNy0yNi44LTc3LjMtNjQtOTAuNXpNNTEyIDkyOGMtMTcuNiAwLTMyLTE0LjQtMzItMzJzMTQuNC0zMiAzMi0zMiAzMiAxNC40IDMyIDMyLTE0LjQgMzItMzIgMzJ6Ii8+PHBhdGggZmlsbD0iIzEyOTZEQiIgZD0iTTgzMiA2MDhjLTI5LjYgMC01NyAxMC4xLTc4LjcgMjcuMWwtNjQuMS00OS4zYzkuNS0yMi43IDE0LjgtNDcuNyAxNC44LTczLjggMC05NS02OS4zLTE3NC0xNjAtMTg5LjNWMjUyYzU1LjEtMTQuMiA5Ni02NC40IDk2LTEyNEM2NDAgNTcuNCA1ODIuNiAwIDUxMiAwUzM4NCA1Ny40IDM4NCAxMjhjMCA1OS41IDQwLjkgMTA5LjcgOTYgMTI0djcwLjdDMzg5LjMgMzM4IDMyMCA0MTcgMzIwIDUxMmMwIDI1LjYgNSA1MCAxNC4yIDcyLjRMMjcwIDYzNC42Yy0yMS43LTE2LjctNDguNy0yNi42LTc4LTI2LjYtNzAuNiAwLTEyOCA1Ny40LTEyOCAxMjhzNTcuNCAxMjggMTI4IDEyOCAxMjgtNTcuNCAxMjgtMTI4YzAtMTguMS0zLjgtMzUuNC0xMC42LTUxbDU4LjgtNDUuOWMzNS4yIDM5LjggODYuNiA2NSAxNDMuOCA2NSA1Ni43IDAgMTA3LjctMjQuNyAxNDIuOS02My45bDU5LjQgNDUuN2MtNi42IDE1LjQtMTAuMyAzMi40LTEwLjMgNTAuMiAwIDcwLjYgNTcuNCAxMjggMTI4IDEyOHMxMjgtNTcuNCAxMjgtMTI4UzkwMi42IDYwOCA4MzIgNjA4ek0xOTIgODAwYy0zNS4zIDAtNjQtMjguNy02NC02NHMyOC43LTY0IDY0LTY0IDY0IDI4LjcgNjQgNjQtMjguNyA2NC02NCA2NHogbTI1Ni02NzJjMC0zNS4zIDI4LjctNjQgNjQtNjRzNjQgMjguNyA2NCA2NC0yOC43IDY0LTY0IDY0LTY0LTI4LjctNjQtNjR6IG02NCA1MTJjLTcwLjYgMC0xMjgtNTcuNC0xMjgtMTI4czU3LjQtMTI4IDEyOC0xMjggMTI4IDU3LjQgMTI4IDEyOC01Ny40IDEyOC0xMjggMTI4eiBtMzIwIDE2MGMtMzUuMyAwLTY0LTI4LjctNjQtNjRzMjguNy02NCA2NC02NCA2NCAyOC43IDY0IDY0LTI4LjcgNjQtNjQgNjR6Ii8+PHBhdGggZmlsbD0iIzEyOTZEQiIgZD0iTTE2MCA0NDhjMjcuMSAwIDUxLjYtMTEuMyA2OS4xLTI5LjRsMjguMSAxMi44YzQuMyAyIDguOCAyLjkgMTMuMiAyLjkgMTIuMiAwIDIzLjgtNyAyOS4yLTE4LjggNy4zLTE2LjEgMC4yLTM1LjEtMTUuOS00Mi40bC0yOC0xMi43YzAuMi0yLjcgMC40LTUuNSAwLjQtOC4zIDAtNTIuOS00My4xLTk2LTk2LTk2cy05NiA0My4xLTk2IDk2IDQzIDk1LjkgOTUuOSA5NS45eiBtMC0xMjhjMTcuNiAwIDMyIDE0LjQgMzIgMzJzLTE0LjQgMzItMzIgMzItMzItMTQuNC0zMi0zMiAxNC40LTMyIDMyLTMyeiBtNTkzLjYgMTE0LjJjNC40IDAgOC45LTAuOSAxMy4yLTIuOWwyOC4xLTEyLjhjMTcuNSAxOC4xIDQyIDI5LjQgNjkuMSAyOS40IDUyLjkgMCA5Ni00My4xIDk2LTk2cy00My4xLTk2LTk2LTk2LTk2IDQzLjEtOTYgOTZjMCAyLjggMC4xIDUuNiAwLjQgOC4zbC0yOCAxMi43Yy0xNi4xIDcuMy0yMy4yIDI2LjMtMTUuOSA0Mi40IDUuMyAxMS45IDE3IDE4LjkgMjkuMSAxOC45ek04NjQgMzIwYzE3LjYgMCAzMiAxNC40IDMyIDMycy0xNC40IDMyLTMyIDMyLTMyLTE0LjQtMzItMzIgMTQuNC0zMiAzMi0zMnoiLz48L3N2Zz4=;shadow=0;fontFamily=Georgia;" vertex="1" parent="Bt3o9h0TUUA31ttmLjAb-48">
          <mxGeometry x="79.5" y="30" width="55" height="55" as="geometry" />
        </mxCell>
        <mxCell id="Bt3o9h0TUUA31ttmLjAb-43" value="" style="shape=image;verticalLabelPosition=bottom;labelBackgroundColor=default;verticalAlign=top;aspect=fixed;imageAspect=0;image=data:image/svg+xml,PHN2ZyB4bWxuczp4bGluaz0iaHR0cDovL3d3dy53My5vcmcvMTk5OS94bGluayIgeG1sbnM9Imh0dHA6Ly93d3cudzMub3JnLzIwMDAvc3ZnIiBoZWlnaHQ9IjIwMCIgd2lkdGg9IjIwMCIgdmVyc2lvbj0iMS4xIiB2aWV3Qm94PSIwIDAgMTAyNCAxMDI0IiBjbGFzcz0iaWNvbiI+PHBhdGggZmlsbD0iIzEyOTZEQiIgZD0iTTU0NCA4MDUuNVY3NjhjMC0xNy43LTE0LjMtMzItMzItMzJzLTMyIDE0LjMtMzIgMzJ2MzcuNWMtMzcuMiAxMy4yLTY0IDQ4LjgtNjQgOTAuNSAwIDUyLjkgNDMuMSA5NiA5NiA5NnM5Ni00My4xIDk2LTk2YzAtNDEuNy0yNi44LTc3LjMtNjQtOTAuNXpNNTEyIDkyOGMtMTcuNiAwLTMyLTE0LjQtMzItMzJzMTQuNC0zMiAzMi0zMiAzMiAxNC40IDMyIDMyLTE0LjQgMzItMzIgMzJ6Ii8+PHBhdGggZmlsbD0iIzEyOTZEQiIgZD0iTTgzMiA2MDhjLTI5LjYgMC01NyAxMC4xLTc4LjcgMjcuMWwtNjQuMS00OS4zYzkuNS0yMi43IDE0LjgtNDcuNyAxNC44LTczLjggMC05NS02OS4zLTE3NC0xNjAtMTg5LjNWMjUyYzU1LjEtMTQuMiA5Ni02NC40IDk2LTEyNEM2NDAgNTcuNCA1ODIuNiAwIDUxMiAwUzM4NCA1Ny40IDM4NCAxMjhjMCA1OS41IDQwLjkgMTA5LjcgOTYgMTI0djcwLjdDMzg5LjMgMzM4IDMyMCA0MTcgMzIwIDUxMmMwIDI1LjYgNSA1MCAxNC4yIDcyLjRMMjcwIDYzNC42Yy0yMS43LTE2LjctNDguNy0yNi42LTc4LTI2LjYtNzAuNiAwLTEyOCA1Ny40LTEyOCAxMjhzNTcuNCAxMjggMTI4IDEyOCAxMjgtNTcuNCAxMjgtMTI4YzAtMTguMS0zLjgtMzUuNC0xMC42LTUxbDU4LjgtNDUuOWMzNS4yIDM5LjggODYuNiA2NSAxNDMuOCA2NSA1Ni43IDAgMTA3LjctMjQuNyAxNDIuOS02My45bDU5LjQgNDUuN2MtNi42IDE1LjQtMTAuMyAzMi40LTEwLjMgNTAuMiAwIDcwLjYgNTcuNCAxMjggMTI4IDEyOHMxMjgtNTcuNCAxMjgtMTI4UzkwMi42IDYwOCA4MzIgNjA4ek0xOTIgODAwYy0zNS4zIDAtNjQtMjguNy02NC02NHMyOC43LTY0IDY0LTY0IDY0IDI4LjcgNjQgNjQtMjguNyA2NC02NCA2NHogbTI1Ni02NzJjMC0zNS4zIDI4LjctNjQgNjQtNjRzNjQgMjguNyA2NCA2NC0yOC43IDY0LTY0IDY0LTY0LTI4LjctNjQtNjR6IG02NCA1MTJjLTcwLjYgMC0xMjgtNTcuNC0xMjgtMTI4czU3LjQtMTI4IDEyOC0xMjggMTI4IDU3LjQgMTI4IDEyOC01Ny40IDEyOC0xMjggMTI4eiBtMzIwIDE2MGMtMzUuMyAwLTY0LTI4LjctNjQtNjRzMjguNy02NCA2NC02NCA2NCAyOC43IDY0IDY0LTI4LjcgNjQtNjQgNjR6Ii8+PHBhdGggZmlsbD0iIzEyOTZEQiIgZD0iTTE2MCA0NDhjMjcuMSAwIDUxLjYtMTEuMyA2OS4xLTI5LjRsMjguMSAxMi44YzQuMyAyIDguOCAyLjkgMTMuMiAyLjkgMTIuMiAwIDIzLjgtNyAyOS4yLTE4LjggNy4zLTE2LjEgMC4yLTM1LjEtMTUuOS00Mi40bC0yOC0xMi43YzAuMi0yLjcgMC40LTUuNSAwLjQtOC4zIDAtNTIuOS00My4xLTk2LTk2LTk2cy05NiA0My4xLTk2IDk2IDQzIDk1LjkgOTUuOSA5NS45eiBtMC0xMjhjMTcuNiAwIDMyIDE0LjQgMzIgMzJzLTE0LjQgMzItMzIgMzItMzItMTQuNC0zMi0zMiAxNC40LTMyIDMyLTMyeiBtNTkzLjYgMTE0LjJjNC40IDAgOC45LTAuOSAxMy4yLTIuOWwyOC4xLTEyLjhjMTcuNSAxOC4xIDQyIDI5LjQgNjkuMSAyOS40IDUyLjkgMCA5Ni00My4xIDk2LTk2cy00My4xLTk2LTk2LTk2LTk2IDQzLjEtOTYgOTZjMCAyLjggMC4xIDUuNiAwLjQgOC4zbC0yOCAxMi43Yy0xNi4xIDcuMy0yMy4yIDI2LjMtMTUuOSA0Mi40IDUuMyAxMS45IDE3IDE4LjkgMjkuMSAxOC45ek04NjQgMzIwYzE3LjYgMCAzMiAxNC40IDMyIDMycy0xNC40IDMyLTMyIDMyLTMyLTE0LjQtMzItMzIgMTQuNC0zMiAzMi0zMnoiLz48L3N2Zz4=;shadow=0;fontFamily=Georgia;" vertex="1" parent="Bt3o9h0TUUA31ttmLjAb-48">
          <mxGeometry x="285" y="30" width="55" height="55" as="geometry" />
        </mxCell>
        <mxCell id="Bt3o9h0TUUA31ttmLjAb-44" value="" style="shape=image;verticalLabelPosition=bottom;labelBackgroundColor=default;verticalAlign=top;aspect=fixed;imageAspect=0;image=data:image/svg+xml,PHN2ZyB4bWxuczp4bGluaz0iaHR0cDovL3d3dy53My5vcmcvMTk5OS94bGluayIgeG1sbnM9Imh0dHA6Ly93d3cudzMub3JnLzIwMDAvc3ZnIiBoZWlnaHQ9IjIwMCIgd2lkdGg9IjIwMCIgdmVyc2lvbj0iMS4xIiB2aWV3Qm94PSIwIDAgMTAyNCAxMDI0IiBjbGFzcz0iaWNvbiI+PHBhdGggZmlsbD0iIzEyOTZEQiIgZD0iTTU0NCA4MDUuNVY3NjhjMC0xNy43LTE0LjMtMzItMzItMzJzLTMyIDE0LjMtMzIgMzJ2MzcuNWMtMzcuMiAxMy4yLTY0IDQ4LjgtNjQgOTAuNSAwIDUyLjkgNDMuMSA5NiA5NiA5NnM5Ni00My4xIDk2LTk2YzAtNDEuNy0yNi44LTc3LjMtNjQtOTAuNXpNNTEyIDkyOGMtMTcuNiAwLTMyLTE0LjQtMzItMzJzMTQuNC0zMiAzMi0zMiAzMiAxNC40IDMyIDMyLTE0LjQgMzItMzIgMzJ6Ii8+PHBhdGggZmlsbD0iIzEyOTZEQiIgZD0iTTgzMiA2MDhjLTI5LjYgMC01NyAxMC4xLTc4LjcgMjcuMWwtNjQuMS00OS4zYzkuNS0yMi43IDE0LjgtNDcuNyAxNC44LTczLjggMC05NS02OS4zLTE3NC0xNjAtMTg5LjNWMjUyYzU1LjEtMTQuMiA5Ni02NC40IDk2LTEyNEM2NDAgNTcuNCA1ODIuNiAwIDUxMiAwUzM4NCA1Ny40IDM4NCAxMjhjMCA1OS41IDQwLjkgMTA5LjcgOTYgMTI0djcwLjdDMzg5LjMgMzM4IDMyMCA0MTcgMzIwIDUxMmMwIDI1LjYgNSA1MCAxNC4yIDcyLjRMMjcwIDYzNC42Yy0yMS43LTE2LjctNDguNy0yNi42LTc4LTI2LjYtNzAuNiAwLTEyOCA1Ny40LTEyOCAxMjhzNTcuNCAxMjggMTI4IDEyOCAxMjgtNTcuNCAxMjgtMTI4YzAtMTguMS0zLjgtMzUuNC0xMC42LTUxbDU4LjgtNDUuOWMzNS4yIDM5LjggODYuNiA2NSAxNDMuOCA2NSA1Ni43IDAgMTA3LjctMjQuNyAxNDIuOS02My45bDU5LjQgNDUuN2MtNi42IDE1LjQtMTAuMyAzMi40LTEwLjMgNTAuMiAwIDcwLjYgNTcuNCAxMjggMTI4IDEyOHMxMjgtNTcuNCAxMjgtMTI4UzkwMi42IDYwOCA4MzIgNjA4ek0xOTIgODAwYy0zNS4zIDAtNjQtMjguNy02NC02NHMyOC43LTY0IDY0LTY0IDY0IDI4LjcgNjQgNjQtMjguNyA2NC02NCA2NHogbTI1Ni02NzJjMC0zNS4zIDI4LjctNjQgNjQtNjRzNjQgMjguNyA2NCA2NC0yOC43IDY0LTY0IDY0LTY0LTI4LjctNjQtNjR6IG02NCA1MTJjLTcwLjYgMC0xMjgtNTcuNC0xMjgtMTI4czU3LjQtMTI4IDEyOC0xMjggMTI4IDU3LjQgMTI4IDEyOC01Ny40IDEyOC0xMjggMTI4eiBtMzIwIDE2MGMtMzUuMyAwLTY0LTI4LjctNjQtNjRzMjguNy02NCA2NC02NCA2NCAyOC43IDY0IDY0LTI4LjcgNjQtNjQgNjR6Ii8+PHBhdGggZmlsbD0iIzEyOTZEQiIgZD0iTTE2MCA0NDhjMjcuMSAwIDUxLjYtMTEuMyA2OS4xLTI5LjRsMjguMSAxMi44YzQuMyAyIDguOCAyLjkgMTMuMiAyLjkgMTIuMiAwIDIzLjgtNyAyOS4yLTE4LjggNy4zLTE2LjEgMC4yLTM1LjEtMTUuOS00Mi40bC0yOC0xMi43YzAuMi0yLjcgMC40LTUuNSAwLjQtOC4zIDAtNTIuOS00My4xLTk2LTk2LTk2cy05NiA0My4xLTk2IDk2IDQzIDk1LjkgOTUuOSA5NS45eiBtMC0xMjhjMTcuNiAwIDMyIDE0LjQgMzIgMzJzLTE0LjQgMzItMzIgMzItMzItMTQuNC0zMi0zMiAxNC40LTMyIDMyLTMyeiBtNTkzLjYgMTE0LjJjNC40IDAgOC45LTAuOSAxMy4yLTIuOWwyOC4xLTEyLjhjMTcuNSAxOC4xIDQyIDI5LjQgNjkuMSAyOS40IDUyLjkgMCA5Ni00My4xIDk2LTk2cy00My4xLTk2LTk2LTk2LTk2IDQzLjEtOTYgOTZjMCAyLjggMC4xIDUuNiAwLjQgOC4zbC0yOCAxMi43Yy0xNi4xIDcuMy0yMy4yIDI2LjMtMTUuOSA0Mi40IDUuMyAxMS45IDE3IDE4LjkgMjkuMSAxOC45ek04NjQgMzIwYzE3LjYgMCAzMiAxNC40IDMyIDMycy0xNC40IDMyLTMyIDMyLTMyLTE0LjQtMzItMzIgMTQuNC0zMiAzMi0zMnoiLz48L3N2Zz4=;shadow=0;fontFamily=Georgia;" vertex="1" parent="Bt3o9h0TUUA31ttmLjAb-48">
          <mxGeometry x="499" y="30" width="55" height="55" as="geometry" />
        </mxCell>
        <mxCell id="Bt3o9h0TUUA31ttmLjAb-49" value="" style="shape=image;verticalLabelPosition=bottom;labelBackgroundColor=default;verticalAlign=top;aspect=fixed;imageAspect=0;image=data:image/svg+xml,PHN2ZyB4bWxuczp4bGluaz0iaHR0cDovL3d3dy53My5vcmcvMTk5OS94bGluayIgeG1sbnM9Imh0dHA6Ly93d3cudzMub3JnLzIwMDAvc3ZnIiBoZWlnaHQ9IjIwMCIgd2lkdGg9IjIwMCIgdmVyc2lvbj0iMS4xIiB2aWV3Qm94PSIwIDAgMTAyNCAxMDI0IiBjbGFzcz0iaWNvbiI+PHBhdGggZmlsbD0iIzEyOTZEQiIgZD0iTTU0NCA4MDUuNVY3NjhjMC0xNy43LTE0LjMtMzItMzItMzJzLTMyIDE0LjMtMzIgMzJ2MzcuNWMtMzcuMiAxMy4yLTY0IDQ4LjgtNjQgOTAuNSAwIDUyLjkgNDMuMSA5NiA5NiA5NnM5Ni00My4xIDk2LTk2YzAtNDEuNy0yNi44LTc3LjMtNjQtOTAuNXpNNTEyIDkyOGMtMTcuNiAwLTMyLTE0LjQtMzItMzJzMTQuNC0zMiAzMi0zMiAzMiAxNC40IDMyIDMyLTE0LjQgMzItMzIgMzJ6Ii8+PHBhdGggZmlsbD0iIzEyOTZEQiIgZD0iTTgzMiA2MDhjLTI5LjYgMC01NyAxMC4xLTc4LjcgMjcuMWwtNjQuMS00OS4zYzkuNS0yMi43IDE0LjgtNDcuNyAxNC44LTczLjggMC05NS02OS4zLTE3NC0xNjAtMTg5LjNWMjUyYzU1LjEtMTQuMiA5Ni02NC40IDk2LTEyNEM2NDAgNTcuNCA1ODIuNiAwIDUxMiAwUzM4NCA1Ny40IDM4NCAxMjhjMCA1OS41IDQwLjkgMTA5LjcgOTYgMTI0djcwLjdDMzg5LjMgMzM4IDMyMCA0MTcgMzIwIDUxMmMwIDI1LjYgNSA1MCAxNC4yIDcyLjRMMjcwIDYzNC42Yy0yMS43LTE2LjctNDguNy0yNi42LTc4LTI2LjYtNzAuNiAwLTEyOCA1Ny40LTEyOCAxMjhzNTcuNCAxMjggMTI4IDEyOCAxMjgtNTcuNCAxMjgtMTI4YzAtMTguMS0zLjgtMzUuNC0xMC42LTUxbDU4LjgtNDUuOWMzNS4yIDM5LjggODYuNiA2NSAxNDMuOCA2NSA1Ni43IDAgMTA3LjctMjQuNyAxNDIuOS02My45bDU5LjQgNDUuN2MtNi42IDE1LjQtMTAuMyAzMi40LTEwLjMgNTAuMiAwIDcwLjYgNTcuNCAxMjggMTI4IDEyOHMxMjgtNTcuNCAxMjgtMTI4UzkwMi42IDYwOCA4MzIgNjA4ek0xOTIgODAwYy0zNS4zIDAtNjQtMjguNy02NC02NHMyOC43LTY0IDY0LTY0IDY0IDI4LjcgNjQgNjQtMjguNyA2NC02NCA2NHogbTI1Ni02NzJjMC0zNS4zIDI4LjctNjQgNjQtNjRzNjQgMjguNyA2NCA2NC0yOC43IDY0LTY0IDY0LTY0LTI4LjctNjQtNjR6IG02NCA1MTJjLTcwLjYgMC0xMjgtNTcuNC0xMjgtMTI4czU3LjQtMTI4IDEyOC0xMjggMTI4IDU3LjQgMTI4IDEyOC01Ny40IDEyOC0xMjggMTI4eiBtMzIwIDE2MGMtMzUuMyAwLTY0LTI4LjctNjQtNjRzMjguNy02NCA2NC02NCA2NCAyOC43IDY0IDY0LTI4LjcgNjQtNjQgNjR6Ii8+PHBhdGggZmlsbD0iIzEyOTZEQiIgZD0iTTE2MCA0NDhjMjcuMSAwIDUxLjYtMTEuMyA2OS4xLTI5LjRsMjguMSAxMi44YzQuMyAyIDguOCAyLjkgMTMuMiAyLjkgMTIuMiAwIDIzLjgtNyAyOS4yLTE4LjggNy4zLTE2LjEgMC4yLTM1LjEtMTUuOS00Mi40bC0yOC0xMi43YzAuMi0yLjcgMC40LTUuNSAwLjQtOC4zIDAtNTIuOS00My4xLTk2LTk2LTk2cy05NiA0My4xLTk2IDk2IDQzIDk1LjkgOTUuOSA5NS45eiBtMC0xMjhjMTcuNiAwIDMyIDE0LjQgMzIgMzJzLTE0LjQgMzItMzIgMzItMzItMTQuNC0zMi0zMiAxNC40LTMyIDMyLTMyeiBtNTkzLjYgMTE0LjJjNC40IDAgOC45LTAuOSAxMy4yLTIuOWwyOC4xLTEyLjhjMTcuNSAxOC4xIDQyIDI5LjQgNjkuMSAyOS40IDUyLjkgMCA5Ni00My4xIDk2LTk2cy00My4xLTk2LTk2LTk2LTk2IDQzLjEtOTYgOTZjMCAyLjggMC4xIDUuNiAwLjQgOC4zbC0yOCAxMi43Yy0xNi4xIDcuMy0yMy4yIDI2LjMtMTUuOSA0Mi40IDUuMyAxMS45IDE3IDE4LjkgMjkuMSAxOC45ek04NjQgMzIwYzE3LjYgMCAzMiAxNC40IDMyIDMycy0xNC40IDMyLTMyIDMyLTMyLTE0LjQtMzItMzIgMTQuNC0zMiAzMi0zMnoiLz48L3N2Zz4=;shadow=0;fontFamily=Georgia;" vertex="1" parent="Bt3o9h0TUUA31ttmLjAb-48">
          <mxGeometry x="79.5" y="130" width="55" height="55" as="geometry" />
        </mxCell>
        <mxCell id="Bt3o9h0TUUA31ttmLjAb-50" value="" style="shape=image;verticalLabelPosition=bottom;labelBackgroundColor=default;verticalAlign=top;aspect=fixed;imageAspect=0;image=data:image/svg+xml,PHN2ZyB4bWxuczp4bGluaz0iaHR0cDovL3d3dy53My5vcmcvMTk5OS94bGluayIgeG1sbnM9Imh0dHA6Ly93d3cudzMub3JnLzIwMDAvc3ZnIiBoZWlnaHQ9IjIwMCIgd2lkdGg9IjIwMCIgdmVyc2lvbj0iMS4xIiB2aWV3Qm94PSIwIDAgMTAyNCAxMDI0IiBjbGFzcz0iaWNvbiI+PHBhdGggZmlsbD0iIzEyOTZEQiIgZD0iTTU0NCA4MDUuNVY3NjhjMC0xNy43LTE0LjMtMzItMzItMzJzLTMyIDE0LjMtMzIgMzJ2MzcuNWMtMzcuMiAxMy4yLTY0IDQ4LjgtNjQgOTAuNSAwIDUyLjkgNDMuMSA5NiA5NiA5NnM5Ni00My4xIDk2LTk2YzAtNDEuNy0yNi44LTc3LjMtNjQtOTAuNXpNNTEyIDkyOGMtMTcuNiAwLTMyLTE0LjQtMzItMzJzMTQuNC0zMiAzMi0zMiAzMiAxNC40IDMyIDMyLTE0LjQgMzItMzIgMzJ6Ii8+PHBhdGggZmlsbD0iIzEyOTZEQiIgZD0iTTgzMiA2MDhjLTI5LjYgMC01NyAxMC4xLTc4LjcgMjcuMWwtNjQuMS00OS4zYzkuNS0yMi43IDE0LjgtNDcuNyAxNC44LTczLjggMC05NS02OS4zLTE3NC0xNjAtMTg5LjNWMjUyYzU1LjEtMTQuMiA5Ni02NC40IDk2LTEyNEM2NDAgNTcuNCA1ODIuNiAwIDUxMiAwUzM4NCA1Ny40IDM4NCAxMjhjMCA1OS41IDQwLjkgMTA5LjcgOTYgMTI0djcwLjdDMzg5LjMgMzM4IDMyMCA0MTcgMzIwIDUxMmMwIDI1LjYgNSA1MCAxNC4yIDcyLjRMMjcwIDYzNC42Yy0yMS43LTE2LjctNDguNy0yNi42LTc4LTI2LjYtNzAuNiAwLTEyOCA1Ny40LTEyOCAxMjhzNTcuNCAxMjggMTI4IDEyOCAxMjgtNTcuNCAxMjgtMTI4YzAtMTguMS0zLjgtMzUuNC0xMC42LTUxbDU4LjgtNDUuOWMzNS4yIDM5LjggODYuNiA2NSAxNDMuOCA2NSA1Ni43IDAgMTA3LjctMjQuNyAxNDIuOS02My45bDU5LjQgNDUuN2MtNi42IDE1LjQtMTAuMyAzMi40LTEwLjMgNTAuMiAwIDcwLjYgNTcuNCAxMjggMTI4IDEyOHMxMjgtNTcuNCAxMjgtMTI4UzkwMi42IDYwOCA4MzIgNjA4ek0xOTIgODAwYy0zNS4zIDAtNjQtMjguNy02NC02NHMyOC43LTY0IDY0LTY0IDY0IDI4LjcgNjQgNjQtMjguNyA2NC02NCA2NHogbTI1Ni02NzJjMC0zNS4zIDI4LjctNjQgNjQtNjRzNjQgMjguNyA2NCA2NC0yOC43IDY0LTY0IDY0LTY0LTI4LjctNjQtNjR6IG02NCA1MTJjLTcwLjYgMC0xMjgtNTcuNC0xMjgtMTI4czU3LjQtMTI4IDEyOC0xMjggMTI4IDU3LjQgMTI4IDEyOC01Ny40IDEyOC0xMjggMTI4eiBtMzIwIDE2MGMtMzUuMyAwLTY0LTI4LjctNjQtNjRzMjguNy02NCA2NC02NCA2NCAyOC43IDY0IDY0LTI4LjcgNjQtNjQgNjR6Ii8+PHBhdGggZmlsbD0iIzEyOTZEQiIgZD0iTTE2MCA0NDhjMjcuMSAwIDUxLjYtMTEuMyA2OS4xLTI5LjRsMjguMSAxMi44YzQuMyAyIDguOCAyLjkgMTMuMiAyLjkgMTIuMiAwIDIzLjgtNyAyOS4yLTE4LjggNy4zLTE2LjEgMC4yLTM1LjEtMTUuOS00Mi40bC0yOC0xMi43YzAuMi0yLjcgMC40LTUuNSAwLjQtOC4zIDAtNTIuOS00My4xLTk2LTk2LTk2cy05NiA0My4xLTk2IDk2IDQzIDk1LjkgOTUuOSA5NS45eiBtMC0xMjhjMTcuNiAwIDMyIDE0LjQgMzIgMzJzLTE0LjQgMzItMzIgMzItMzItMTQuNC0zMi0zMiAxNC40LTMyIDMyLTMyeiBtNTkzLjYgMTE0LjJjNC40IDAgOC45LTAuOSAxMy4yLTIuOWwyOC4xLTEyLjhjMTcuNSAxOC4xIDQyIDI5LjQgNjkuMSAyOS40IDUyLjkgMCA5Ni00My4xIDk2LTk2cy00My4xLTk2LTk2LTk2LTk2IDQzLjEtOTYgOTZjMCAyLjggMC4xIDUuNiAwLjQgOC4zbC0yOCAxMi43Yy0xNi4xIDcuMy0yMy4yIDI2LjMtMTUuOSA0Mi40IDUuMyAxMS45IDE3IDE4LjkgMjkuMSAxOC45ek04NjQgMzIwYzE3LjYgMCAzMiAxNC40IDMyIDMycy0xNC40IDMyLTMyIDMyLTMyLTE0LjQtMzItMzIgMTQuNC0zMiAzMi0zMnoiLz48L3N2Zz4=;shadow=0;fontFamily=Georgia;" vertex="1" parent="Bt3o9h0TUUA31ttmLjAb-48">
          <mxGeometry x="285" y="130" width="55" height="55" as="geometry" />
        </mxCell>
        <mxCell id="Bt3o9h0TUUA31ttmLjAb-51" value="" style="shape=image;verticalLabelPosition=bottom;labelBackgroundColor=default;verticalAlign=top;aspect=fixed;imageAspect=0;image=data:image/svg+xml,PHN2ZyB4bWxuczp4bGluaz0iaHR0cDovL3d3dy53My5vcmcvMTk5OS94bGluayIgeG1sbnM9Imh0dHA6Ly93d3cudzMub3JnLzIwMDAvc3ZnIiBoZWlnaHQ9IjIwMCIgd2lkdGg9IjIwMCIgdmVyc2lvbj0iMS4xIiB2aWV3Qm94PSIwIDAgMTAyNCAxMDI0IiBjbGFzcz0iaWNvbiI+PHBhdGggZmlsbD0iIzEyOTZEQiIgZD0iTTU0NCA4MDUuNVY3NjhjMC0xNy43LTE0LjMtMzItMzItMzJzLTMyIDE0LjMtMzIgMzJ2MzcuNWMtMzcuMiAxMy4yLTY0IDQ4LjgtNjQgOTAuNSAwIDUyLjkgNDMuMSA5NiA5NiA5NnM5Ni00My4xIDk2LTk2YzAtNDEuNy0yNi44LTc3LjMtNjQtOTAuNXpNNTEyIDkyOGMtMTcuNiAwLTMyLTE0LjQtMzItMzJzMTQuNC0zMiAzMi0zMiAzMiAxNC40IDMyIDMyLTE0LjQgMzItMzIgMzJ6Ii8+PHBhdGggZmlsbD0iIzEyOTZEQiIgZD0iTTgzMiA2MDhjLTI5LjYgMC01NyAxMC4xLTc4LjcgMjcuMWwtNjQuMS00OS4zYzkuNS0yMi43IDE0LjgtNDcuNyAxNC44LTczLjggMC05NS02OS4zLTE3NC0xNjAtMTg5LjNWMjUyYzU1LjEtMTQuMiA5Ni02NC40IDk2LTEyNEM2NDAgNTcuNCA1ODIuNiAwIDUxMiAwUzM4NCA1Ny40IDM4NCAxMjhjMCA1OS41IDQwLjkgMTA5LjcgOTYgMTI0djcwLjdDMzg5LjMgMzM4IDMyMCA0MTcgMzIwIDUxMmMwIDI1LjYgNSA1MCAxNC4yIDcyLjRMMjcwIDYzNC42Yy0yMS43LTE2LjctNDguNy0yNi42LTc4LTI2LjYtNzAuNiAwLTEyOCA1Ny40LTEyOCAxMjhzNTcuNCAxMjggMTI4IDEyOCAxMjgtNTcuNCAxMjgtMTI4YzAtMTguMS0zLjgtMzUuNC0xMC42LTUxbDU4LjgtNDUuOWMzNS4yIDM5LjggODYuNiA2NSAxNDMuOCA2NSA1Ni43IDAgMTA3LjctMjQuNyAxNDIuOS02My45bDU5LjQgNDUuN2MtNi42IDE1LjQtMTAuMyAzMi40LTEwLjMgNTAuMiAwIDcwLjYgNTcuNCAxMjggMTI4IDEyOHMxMjgtNTcuNCAxMjgtMTI4UzkwMi42IDYwOCA4MzIgNjA4ek0xOTIgODAwYy0zNS4zIDAtNjQtMjguNy02NC02NHMyOC43LTY0IDY0LTY0IDY0IDI4LjcgNjQgNjQtMjguNyA2NC02NCA2NHogbTI1Ni02NzJjMC0zNS4zIDI4LjctNjQgNjQtNjRzNjQgMjguNyA2NCA2NC0yOC43IDY0LTY0IDY0LTY0LTI4LjctNjQtNjR6IG02NCA1MTJjLTcwLjYgMC0xMjgtNTcuNC0xMjgtMTI4czU3LjQtMTI4IDEyOC0xMjggMTI4IDU3LjQgMTI4IDEyOC01Ny40IDEyOC0xMjggMTI4eiBtMzIwIDE2MGMtMzUuMyAwLTY0LTI4LjctNjQtNjRzMjguNy02NCA2NC02NCA2NCAyOC43IDY0IDY0LTI4LjcgNjQtNjQgNjR6Ii8+PHBhdGggZmlsbD0iIzEyOTZEQiIgZD0iTTE2MCA0NDhjMjcuMSAwIDUxLjYtMTEuMyA2OS4xLTI5LjRsMjguMSAxMi44YzQuMyAyIDguOCAyLjkgMTMuMiAyLjkgMTIuMiAwIDIzLjgtNyAyOS4yLTE4LjggNy4zLTE2LjEgMC4yLTM1LjEtMTUuOS00Mi40bC0yOC0xMi43YzAuMi0yLjcgMC40LTUuNSAwLjQtOC4zIDAtNTIuOS00My4xLTk2LTk2LTk2cy05NiA0My4xLTk2IDk2IDQzIDk1LjkgOTUuOSA5NS45eiBtMC0xMjhjMTcuNiAwIDMyIDE0LjQgMzIgMzJzLTE0LjQgMzItMzIgMzItMzItMTQuNC0zMi0zMiAxNC40LTMyIDMyLTMyeiBtNTkzLjYgMTE0LjJjNC40IDAgOC45LTAuOSAxMy4yLTIuOWwyOC4xLTEyLjhjMTcuNSAxOC4xIDQyIDI5LjQgNjkuMSAyOS40IDUyLjkgMCA5Ni00My4xIDk2LTk2cy00My4xLTk2LTk2LTk2LTk2IDQzLjEtOTYgOTZjMCAyLjggMC4xIDUuNiAwLjQgOC4zbC0yOCAxMi43Yy0xNi4xIDcuMy0yMy4yIDI2LjMtMTUuOSA0Mi40IDUuMyAxMS45IDE3IDE4LjkgMjkuMSAxOC45ek04NjQgMzIwYzE3LjYgMCAzMiAxNC40IDMyIDMycy0xNC40IDMyLTMyIDMyLTMyLTE0LjQtMzItMzIgMTQuNC0zMiAzMi0zMnoiLz48L3N2Zz4=;shadow=0;fontFamily=Georgia;" vertex="1" parent="Bt3o9h0TUUA31ttmLjAb-48">
          <mxGeometry x="499" y="130" width="55" height="55" as="geometry" />
        </mxCell>
        <mxCell id="Bt3o9h0TUUA31ttmLjAb-57" value="&lt;b&gt;&lt;font style=&quot;font-size: 14px;&quot; face=&quot;Lucida Console&quot;&gt;微服务集群&lt;/font&gt;&lt;/b&gt;" style="text;html=1;align=center;verticalAlign=middle;resizable=0;points=[];autosize=1;strokeColor=none;fillColor=none;fontFamily=Architects Daughter;fontSource=https%3A%2F%2Ffonts.googleapis.com%2Fcss%3Ffamily%3DArchitects%2BDaughter;" vertex="1" parent="Bt3o9h0TUUA31ttmLjAb-48">
          <mxGeometry x="8" width="90" height="30" as="geometry" />
        </mxCell>
        <mxCell id="Bt3o9h0TUUA31ttmLjAb-90" value="" style="swimlane;startSize=0;hachureGap=4;fontFamily=Georgia;dashed=1;strokeColor=#FF9933;strokeWidth=2;rounded=1;opacity=80;shadow=0;" vertex="1" parent="1">
          <mxGeometry x="725" y="-178" width="96" height="205" as="geometry" />
        </mxCell>
        <mxCell id="Bt3o9h0TUUA31ttmLjAb-91" value="主库" style="shape=image;verticalLabelPosition=bottom;labelBackgroundColor=default;verticalAlign=top;aspect=fixed;imageAspect=0;image=data:image/svg+xml,PHN2ZyB4bWxuczp4bGluaz0iaHR0cDovL3d3dy53My5vcmcvMTk5OS94bGluayIgeG1sbnM9Imh0dHA6Ly93d3cudzMub3JnLzIwMDAvc3ZnIiBoZWlnaHQ9IjIwMCIgd2lkdGg9IjIwMCIgdmVyc2lvbj0iMS4xIiB2aWV3Qm94PSIwIDAgMTAyNCAxMDI0IiBjbGFzcz0iaWNvbiI+PHBhdGggZmlsbD0iIzdlYzlmMCIgZD0iTTUxMS44NTAwNDQgMC4yOTk5MTJDMjI5LjMzMjgxMyAwLjI5OTkxMiAwLjI5OTkxMiAxMDcuNTY4NDg2IDAgMjM5LjkyOTcwOHY1NDQuMTQwNTg0YzAgMTMyLjQ2MTE5MyAyMjkuMTMyODcxIDIzOS45Mjk3MDggNTExLjg1MDA0NCAyMzkuOTI5NzA4czUxMS44NTAwNDQtMTA3LjQ2ODUxNSA1MTEuODUwMDQ0LTIzOS45Mjk3MDhWMjM5LjkyOTcwOEMxMDIzLjQwMDE3NiAxMDcuNTY4NDg2IDc5NC4zNjcyNzUgMC4yOTk5MTIgNTExLjg1MDA0NCAwLjI5OTkxMnpNMTY3Ljk1MDc5NiA4OTUuNzM3NTc3Yy0yMi4wOTM1MjcgMC0zOS45ODgyODUtMTcuODk0NzU3LTM5Ljk4ODI4NS0zOS45ODgyODVzMTcuODk0NzU3LTM5Ljk4ODI4NSAzOS45ODgyODUtMzkuOTg4Mjg0IDM5Ljk4ODI4NSAxNy44OTQ3NTcgMzkuOTg4Mjg0IDM5Ljk4ODI4NC0xNy44OTQ3NTcgMzkuOTg4Mjg1LTM5Ljk4ODI4NCAzOS45ODgyODV6IG03OTEuNzY4MDM2LTE4OC42NDQ3MzNjLTE3Ljg5NDc1NyAxMS40OTY2MzItMzcuNDg5MDE3IDIyLjE5MzQ5OC01OC43ODI3NzggMzIuMTkwNTY5LTEwNC45NjkyNDcgNDkuMTg1NTktMjQzLjIyODc0MiA3Ni4yNzc2NTMtMzg5LjA4NjAxIDc2LjI3NzY1M3MtMjg0LjExNjc2My0yNy4wOTIwNjMtMzg5LjA4NjAxLTc2LjI3NzY1M2MtMjEuMjkzNzYyLTkuOTk3MDcxLTQwLjg4ODAyMS0yMC42OTM5MzctNTguNzgyNzc5LTMyLjE5MDU2OXYtNzkuMTc2ODA0Yzg3LjI3NDQzMSA3My43NzgzODUgMjU1LjEyNTI1NiAxMjMuNjYzNzcgNDQ3Ljg2ODc4OSAxMjMuNjYzNzcxczM2MC41OTQzNTctNDkuODg1Mzg1IDQ0Ny44Njg3ODgtMTIzLjY2Mzc3MXY3OS4xNzY4MDR6TTEyNy45NjI1MTEgNTgzLjgyODk1NmMwLTIyLjA5MzUyNyAxNy44OTQ3NTctMzkuOTg4Mjg1IDM5Ljk4ODI4NS0zOS45ODgyODRzMzkuOTg4Mjg1IDE3Ljg5NDc1NyAzOS45ODgyODQgMzkuOTg4Mjg0LTE3Ljg5NDc1NyAzOS45ODgyODUtMzkuOTg4Mjg0IDM5Ljk4ODI4NS0zOS45ODgyODUtMTcuODk0NzU3LTM5Ljk4ODI4NS0zOS45ODgyODV6IG04MzEuNzU2MzIxLTE0OC4xNTY1OTRjLTE3Ljg5NDc1NyAxMS40OTY2MzItMzcuNDg5MDE3IDIyLjE5MzQ5OC01OC43ODI3NzggMzIuMTkwNTY5LTEwNC45NjkyNDcgNDkuMTg1NTktMjQzLjIyODc0MiA3Ni4yNzc2NTMtMzg5LjA4NjAxIDc2LjI3NzY1M1MyMjcuNzMzMjgxIDUxNy4wNDg1MjEgMTIyLjc2NDAzNCA0NjcuODYyOTMxYy0yMS4yOTM3NjItOS45OTcwNzEtNDAuODg4MDIxLTIwLjY5MzkzNy01OC43ODI3NzktMzIuMTkwNTY5di03OS4xNzY4MDRjODcuMjc0NDMxIDczLjc3ODM4NSAyNTUuMTI1MjU2IDEyMy42NjM3NyA0NDcuODY4Nzg5IDEyMy42NjM3N3MzNjAuNTk0MzU3LTQ5Ljg4NTM4NSA0NDcuODY4Nzg4LTEyMy42NjM3N3Y3OS4xNzY4MDR6Ii8+PC9zdmc+;fontFamily=Georgia;fontStyle=1;shadow=0;" vertex="1" parent="Bt3o9h0TUUA31ttmLjAb-90">
          <mxGeometry x="24" y="18" width="48" height="48" as="geometry" />
        </mxCell>
        <mxCell id="Bt3o9h0TUUA31ttmLjAb-92" value="备库" style="shape=image;verticalLabelPosition=bottom;labelBackgroundColor=default;verticalAlign=top;aspect=fixed;imageAspect=0;image=data:image/svg+xml,PHN2ZyB4bWxuczp4bGluaz0iaHR0cDovL3d3dy53My5vcmcvMTk5OS94bGluayIgeG1sbnM9Imh0dHA6Ly93d3cudzMub3JnLzIwMDAvc3ZnIiBoZWlnaHQ9IjIwMCIgd2lkdGg9IjIwMCIgdmVyc2lvbj0iMS4xIiB2aWV3Qm94PSIwIDAgMTAyNCAxMDI0IiBjbGFzcz0iaWNvbiI+PHBhdGggZmlsbD0iIzdlYzlmMCIgZD0iTTUxMS44NTAwNDQgMC4yOTk5MTJDMjI5LjMzMjgxMyAwLjI5OTkxMiAwLjI5OTkxMiAxMDcuNTY4NDg2IDAgMjM5LjkyOTcwOHY1NDQuMTQwNTg0YzAgMTMyLjQ2MTE5MyAyMjkuMTMyODcxIDIzOS45Mjk3MDggNTExLjg1MDA0NCAyMzkuOTI5NzA4czUxMS44NTAwNDQtMTA3LjQ2ODUxNSA1MTEuODUwMDQ0LTIzOS45Mjk3MDhWMjM5LjkyOTcwOEMxMDIzLjQwMDE3NiAxMDcuNTY4NDg2IDc5NC4zNjcyNzUgMC4yOTk5MTIgNTExLjg1MDA0NCAwLjI5OTkxMnpNMTY3Ljk1MDc5NiA4OTUuNzM3NTc3Yy0yMi4wOTM1MjcgMC0zOS45ODgyODUtMTcuODk0NzU3LTM5Ljk4ODI4NS0zOS45ODgyODVzMTcuODk0NzU3LTM5Ljk4ODI4NSAzOS45ODgyODUtMzkuOTg4Mjg0IDM5Ljk4ODI4NSAxNy44OTQ3NTcgMzkuOTg4Mjg0IDM5Ljk4ODI4NC0xNy44OTQ3NTcgMzkuOTg4Mjg1LTM5Ljk4ODI4NCAzOS45ODgyODV6IG03OTEuNzY4MDM2LTE4OC42NDQ3MzNjLTE3Ljg5NDc1NyAxMS40OTY2MzItMzcuNDg5MDE3IDIyLjE5MzQ5OC01OC43ODI3NzggMzIuMTkwNTY5LTEwNC45NjkyNDcgNDkuMTg1NTktMjQzLjIyODc0MiA3Ni4yNzc2NTMtMzg5LjA4NjAxIDc2LjI3NzY1M3MtMjg0LjExNjc2My0yNy4wOTIwNjMtMzg5LjA4NjAxLTc2LjI3NzY1M2MtMjEuMjkzNzYyLTkuOTk3MDcxLTQwLjg4ODAyMS0yMC42OTM5MzctNTguNzgyNzc5LTMyLjE5MDU2OXYtNzkuMTc2ODA0Yzg3LjI3NDQzMSA3My43NzgzODUgMjU1LjEyNTI1NiAxMjMuNjYzNzcgNDQ3Ljg2ODc4OSAxMjMuNjYzNzcxczM2MC41OTQzNTctNDkuODg1Mzg1IDQ0Ny44Njg3ODgtMTIzLjY2Mzc3MXY3OS4xNzY4MDR6TTEyNy45NjI1MTEgNTgzLjgyODk1NmMwLTIyLjA5MzUyNyAxNy44OTQ3NTctMzkuOTg4Mjg1IDM5Ljk4ODI4NS0zOS45ODgyODRzMzkuOTg4Mjg1IDE3Ljg5NDc1NyAzOS45ODgyODQgMzkuOTg4Mjg0LTE3Ljg5NDc1NyAzOS45ODgyODUtMzkuOTg4Mjg0IDM5Ljk4ODI4NS0zOS45ODgyODUtMTcuODk0NzU3LTM5Ljk4ODI4NS0zOS45ODgyODV6IG04MzEuNzU2MzIxLTE0OC4xNTY1OTRjLTE3Ljg5NDc1NyAxMS40OTY2MzItMzcuNDg5MDE3IDIyLjE5MzQ5OC01OC43ODI3NzggMzIuMTkwNTY5LTEwNC45NjkyNDcgNDkuMTg1NTktMjQzLjIyODc0MiA3Ni4yNzc2NTMtMzg5LjA4NjAxIDc2LjI3NzY1M1MyMjcuNzMzMjgxIDUxNy4wNDg1MjEgMTIyLjc2NDAzNCA0NjcuODYyOTMxYy0yMS4yOTM3NjItOS45OTcwNzEtNDAuODg4MDIxLTIwLjY5MzkzNy01OC43ODI3NzktMzIuMTkwNTY5di03OS4xNzY4MDRjODcuMjc0NDMxIDczLjc3ODM4NSAyNTUuMTI1MjU2IDEyMy42NjM3NyA0NDcuODY4Nzg5IDEyMy42NjM3N3MzNjAuNTk0MzU3LTQ5Ljg4NTM4NSA0NDcuODY4Nzg4LTEyMy42NjM3N3Y3OS4xNzY4MDR6Ii8+PC9zdmc+;fontFamily=Georgia;fontStyle=1;shadow=0;" vertex="1" parent="Bt3o9h0TUUA31ttmLjAb-90">
          <mxGeometry x="24" y="98" width="47.5" height="47.5" as="geometry" />
        </mxCell>
        <mxCell id="Bt3o9h0TUUA31ttmLjAb-93" value="&lt;font size=&quot;1&quot; face=&quot;Lucida Console&quot;&gt;&lt;b style=&quot;font-size: 14px;&quot;&gt;MYSQL&lt;/b&gt;&lt;/font&gt;" style="text;html=1;align=center;verticalAlign=middle;resizable=0;points=[];autosize=1;strokeColor=none;fillColor=none;fontFamily=Architects Daughter;fontSource=https%3A%2F%2Ffonts.googleapis.com%2Fcss%3Ffamily%3DArchitects%2BDaughter;" vertex="1" parent="Bt3o9h0TUUA31ttmLjAb-90">
          <mxGeometry x="15" y="175" width="70" height="30" as="geometry" />
        </mxCell>
        <mxCell id="Bt3o9h0TUUA31ttmLjAb-125" style="edgeStyle=orthogonalEdgeStyle;rounded=0;orthogonalLoop=1;jettySize=auto;html=1;entryX=-0.007;entryY=0.517;entryDx=0;entryDy=0;entryPerimeter=0;" edge="1" parent="1" source="Bt3o9h0TUUA31ttmLjAb-100" target="Bt3o9h0TUUA31ttmLjAb-123">
          <mxGeometry relative="1" as="geometry" />
        </mxCell>
      </root>
    </mxGraphModel>
  </diagram>
</mxfile>
